<svg xmlns="http://www.w3.org/2000/svg" width="1272" height="219" fill="none"><path fill="#DFE2EB" d="M86.08 98.5c.001 3.751-.824 7.432-2.472 11.016a68.51 68.51 0 0 1-6.94 11.799 5.18 5.18 0 0 1-.376.458l3.25 3.976a.827.827 0 0 1 .063.964c-.086.137-2.138 3.407-5.42 6.174-3.294 2.778-6.528 3.995-6.664 4.045a.864.864 0 0 1-.867-.156l-2.807-2.443a.848.848 0 0 1-.169-.201c-2.47 1.249-7.066 2.926-14.634 3.53-6.702.535-12.197-.299-16.333-2.48-.222-.117-.584-.289-.975-.476-.67-.32-1.364-.65-1.742-.878a65.916 65.916 0 0 0-1.28-.74c-3.697-2.103-10.578-6.017-15.822-14.96-4.445-7.579-4.907-11.351-5.315-14.678-.242-1.979-.452-3.688-1.498-5.988-2.661-5.853-4.839-7.022-4.86-7.033a.862.862 0 0 1-.442-.547.83.83 0 0 1 .118-.682c.431-.613 2.691-3.674 4.875-3.707 1.059-.017 1.783.345 2.312.609.542.27.555.26.71.147.165-.123.257-.346.392-.7.323-.846.81-2.122 3.318-2.181 1.996-.048 3.111.989 3.92 1.833.846-1.668 3.154-5.945 6.176-9.338 1.953-2.192 4.236-3.91 5.806-4.967 1.198-.805 1.989-1.29 2.53-1.568-.596-1.081-.851-1.816-1.05-2.387-.233-.67-.362-1.04-.908-1.62-1.819-1.928-.39-5.08-.122-5.461a.917.917 0 0 1 .653-.383c.489-.054.791.221 1.34.72.914.83 2.814 2.558 6.038 3.387 2.89.744 6.247.588 9.21.452 1.87-.087 3.636-.168 5.032-.002 4.564.541 14.062 1.669 21.87 8.562 3.733 3.296 6.995 7.432 9.281 11.711a.84.84 0 0 1 .13.245 34.96 34.96 0 0 1 1.476 3.18c1.465 3.635 2.197 7.233 2.197 10.768Zm-2.186 4.608c1.194-6.27-.236-12.375-2.97-17.696-.764-.369-3.318-1.436-7.18-1.356-4.552.093-5.99.869-6.003.877a.87.87 0 0 1-1.162-.295.823.823 0 0 1 .27-1.136c.169-.104 1.792-1.02 6.859-1.125 2.514-.051 4.524.336 5.939.756-2.195-3.611-4.95-6.781-7.79-9.288a28.724 28.724 0 0 0-4.575-3.294c-.763.307-2.969.998-6.672.623-4.314-.437-6.666-.598-6.689-.6a.85.85 0 0 1-.792-.894.848.848 0 0 1 .91-.78c.023.002 2.4.164 6.746.604 1.9.192 3.342.077 4.335-.1-5.58-2.682-11.083-3.335-14.197-3.705-1.254-.148-2.951-.07-4.748.013-3.084.142-6.58.304-9.72-.505-3.359-.863-5.417-2.565-6.512-3.548-.207.782-.316 1.884.285 2.521.793.842 1.015 1.479 1.272 2.217.242.698.544 1.566 1.494 3.076.876 1.394 2.025 1.427 3.827 1.366 1.192-.041 2.544-.087 3.738.598 2.089 1.197 1.609 2.655 1.294 3.62-.172.522-.321.976-.21 1.449.37.044 1.403-.266 2.17-.496 1.766-.53 4.183-1.254 6.623-.862 1.363.22 2.197.622 2.624 1.266.5.751.29 1.551.122 2.194-.221.844-.201 1.009.157 1.251 1.366.93 2.614 1.188 4.34 1.548.727.151 1.552.323 2.48.567 1.449.382 2.462 1.114 3.012 2.177.835 1.616.605 3.943-.724 7.32a20.244 20.244 0 0 0-1.396 7.113v.026c0 .73.346 1.388.887 2.112 4.722 4.845 7.387 10.18 7.629 15.438a22.96 22.96 0 0 1-.094 3.169c.302 1.182 1.23 1.894 2.118 2.184 1.104.361 2.654.242 3.692-1.178a66.836 66.836 0 0 0 6.77-11.511 25.193 25.193 0 0 0 1.353-3.653c-.411-.536-2.411-3.015-5.862-5.302-.407.176-2.87 1.209-5.052 1.334-1.088.062-2.487.098-2.974-.081l.6-1.571s-.019-.01-.07-.023c.02.005.502.105 2.344 0 1.146-.066 2.435-.445 3.34-.762-4.498-2.55-6.1-2.926-6.117-2.93a.844.844 0 0 1-.65-.995.849.849 0 0 1 .999-.647c.186.037 1.957.444 6.985 3.327 3.41 1.955 5.732 4.228 6.945 5.587Zm-16.51 32.061a24.29 24.29 0 0 0 5.69-3.556c2.352-1.983 4.067-4.298 4.75-5.288l-2.569-3.141c-.897 1.15-2.357 2.996-3.387 4.174-2.72 3.114-5.85 5.357-5.983 5.451a.887.887 0 0 1-.17.095c-.13.097-.302.219-.52.36l2.189 1.905Zm-.176-5.584c1.02-.884 2.24-2.031 3.365-3.32a88.328 88.328 0 0 0 2.386-2.906 5.16 5.16 0 0 1-1.908-.254 5.019 5.019 0 0 1-1.93-1.145c-.492 2.891-1.284 5.67-1.913 7.625Zm-2.474 1.942c.427-1.149 2.476-6.862 3.014-12.119a5.083 5.083 0 0 1-.082-1.016c.03-1.621-.087-3.171-.353-4.604-.978-5.262-3.908-8.691-5.658-10.74-.309-.36-.584-.684-.815-.973a18.146 18.146 0 0 1-.216-.276 41.876 41.876 0 0 0-4.847-4.203c-7.138-5.325-10.55-4.994-12.19-4.835l-.24.023c-.423.037-1.192.271-2.005.52-2.114.644-5.009 1.526-7.145.693-1.971-.77-2.149-2.73-2.32-4.625-.123-1.359-.25-2.765-.99-3.86-1.583-2.348-5.657-1.165-7.814-.096-.853.423-1.494.943-2.06 1.403-.969.787-1.97 1.601-3.482 1.229-.966-.238-1.59-.896-2.193-1.532-.766-.806-1.427-1.503-2.795-1.47-1.355.031-1.5.409-1.76 1.093-.176.458-.394 1.029-.966 1.451-1.017.752-1.878.322-2.507.009-.45-.225-.876-.437-1.513-.428-.799.012-2.094 1.228-2.993 2.323 1.015.853 2.816 2.846 4.833 7.282 1.152 2.532 1.386 4.446 1.635 6.473.388 3.168.828 6.758 5.098 14.041 5.016 8.554 11.39 12.179 15.2 14.345.49.279.931.531 1.315.761.307.185 1.022.526 1.595.799.417.199.802.383 1.038.507 3.56 1.878 8.27 2.676 14.01 2.377-4.301-1.256-10.697-3.822-16.64-8.9-9.965-8.513-15.402-25.052-15.629-25.751a.838.838 0 0 1 .555-1.055.857.857 0 0 1 1.072.545c.052.159 4.996 15.193 13.731 23.722.554-1.653 1.663-5.491 1.042-8.16a130.032 130.032 0 0 0-.71-2.883c-.53-2.071-.912-3.567-.982-5.329v-.033c0-.448.36-.82.82-.838a.848.848 0 0 1 .886.806c.06 1.511.393 2.876.859 4.705l1.596-1.635a.864.864 0 0 1 1.206-.025.83.83 0 0 1 .026 1.187l-2.342 2.399c.099.4.201.824.305 1.274.846 3.651-.968 8.793-1.34 9.784a.417.417 0 0 0 .024.02c3.19 2.725 6.546 4.701 9.61 6.125-1.238-2.237-2.836-5.89-1.656-8.215.784-1.544 2.194-2.719 3.557-3.856 1.49-1.243 2.898-2.417 3.427-3.954a.857.857 0 0 1 1.083-.526.835.835 0 0 1 .534 1.064c-.68 1.978-2.338 3.36-3.94 4.696-.582.485-1.15.958-1.655 1.445 1.108.352 3.206.939 4.918.958 2.438.027 5.89-1.17 5.925-1.182a.858.858 0 0 1 1.09.509.834.834 0 0 1-.517 1.072c-.152.054-3.772 1.31-6.517 1.28-2.41-.026-5.317-.989-6.084-1.258-.108.163-.206.33-.293.501-1.062 2.094 1.663 6.904 2.701 8.425a.82.82 0 0 1 .093.18c4.858 1.895 8.46 2.356 8.523 2.364l.024.003c7.725-1.157 11.18-3.471 11.904-4.016Zm-5.386-33.234a21.954 21.954 0 0 1 1.507-7.427c1.11-2.822 1.377-4.826.793-5.954-.325-.63-.957-1.06-1.931-1.317a44.691 44.691 0 0 0-2.392-.546c-1.775-.37-3.308-.689-4.956-1.809-1.392-.945-1.046-2.263-.84-3.05.089-.341.19-.727.102-.86-.036-.053-.276-.333-1.47-.526-2.048-.33-4.156.303-5.85.811-1.57.472-2.706.812-3.554.348a1.54 1.54 0 0 1-.753-.986c-.258-.966.009-1.781.224-2.437.3-.917.374-1.136-.53-1.654-.767-.44-1.763-.407-2.818-.37-1.622.055-3.616.123-5.046-1.74-1.123.61-4.952 2.828-7.952 6.193-3.156 3.542-5.568 8.243-6.132 9.384.064.028.129.05.195.067.622.153.994-.093 1.98-.895.604-.49 1.356-1.1 2.379-1.608 3.304-1.637 7.907-2.445 10.006.666.978 1.451 1.131 3.145 1.267 4.64.163 1.805.302 2.843 1.25 3.213 1.576.616 4.139-.166 6.01-.736.94-.287 1.754-.535 2.358-.588l.223-.021c1.857-.18 5.72-.555 13.39 5.167.89.665 1.737 1.344 2.54 2.035ZM136.895 179.97c0-3.751.825-7.432 2.473-11.016a68.493 68.493 0 0 1 6.94-11.799 5.09 5.09 0 0 1 .376-.458l-3.251-3.976a.826.826 0 0 1-.062-.964c.086-.138 2.138-3.407 5.42-6.174 3.294-2.778 6.528-3.995 6.664-4.046a.868.868 0 0 1 .867.157l2.807 2.443a.84.84 0 0 1 .169.201c2.47-1.249 7.066-2.926 14.634-3.53 6.702-.535 12.197.299 16.333 2.48.222.117.584.289.975.476.67.32 1.364.65 1.742.878.373.224.803.468 1.279.74 3.698 2.103 10.579 6.017 15.823 14.96 4.445 7.579 4.907 11.351 5.315 14.678.242 1.979.452 3.688 1.498 5.988 2.661 5.853 4.839 7.022 4.861 7.033a.865.865 0 0 1 .441.547.828.828 0 0 1-.118.682c-.431.613-2.691 3.674-4.875 3.707-1.059.017-1.783-.345-2.312-.609-.542-.27-.555-.261-.71-.147-.165.123-.257.346-.392.7-.323.845-.81 2.122-3.318 2.182-1.997.047-3.112-.99-3.92-1.834-.846 1.668-3.154 5.945-6.176 9.338-1.953 2.191-4.236 3.91-5.806 4.967-1.199.805-1.989 1.291-2.53 1.568.595 1.081.851 1.816 1.05 2.387.233.67.362 1.039.908 1.619 1.819 1.929.389 5.081.122 5.462a.92.92 0 0 1-.653.383c-.489.054-.791-.221-1.341-.72-.913-.831-2.813-2.558-6.037-3.388-2.89-.743-6.247-.587-9.209-.451-1.87.087-3.637.168-5.033.002-4.564-.541-14.062-1.669-21.87-8.562-3.733-3.296-6.995-7.432-9.281-11.711a.827.827 0 0 1-.13-.245 34.785 34.785 0 0 1-1.476-3.179c-1.465-3.636-2.197-7.234-2.197-10.769Zm2.187-4.609c-1.194 6.271.236 12.376 2.97 17.697.764.369 3.318 1.436 7.18 1.356 4.551-.093 5.989-.869 6.003-.877a.87.87 0 0 1 1.162.295.822.822 0 0 1-.27 1.136c-.169.104-1.792 1.021-6.859 1.125-2.514.051-4.524-.336-5.939-.756a40.893 40.893 0 0 0 7.79 9.288 28.706 28.706 0 0 0 4.575 3.294c.763-.307 2.969-.999 6.672-.623 4.314.437 6.666.598 6.689.6a.85.85 0 0 1 .792.894.848.848 0 0 1-.909.78c-.024-.002-2.401-.164-6.747-.604-1.9-.193-3.342-.077-4.335.099 5.58 2.683 11.083 3.336 14.197 3.706 1.254.148 2.951.07 4.748-.013 3.084-.142 6.58-.304 9.721.504 3.358.864 5.416 2.566 6.511 3.549.206-.782.316-1.884-.285-2.521-.793-.842-1.015-1.479-1.272-2.217-.242-.698-.544-1.566-1.494-3.076-.876-1.394-2.025-1.427-3.827-1.366-1.192.041-2.544.087-3.738-.598-2.089-1.197-1.609-2.655-1.294-3.62.172-.522.321-.976.209-1.449-.368-.044-1.402.266-2.17.496-1.765.53-4.182 1.254-6.622.862-1.363-.22-2.197-.622-2.624-1.266-.499-.751-.291-1.551-.122-2.194.221-.845.201-1.009-.157-1.252-1.366-.928-2.614-1.187-4.34-1.547a46.855 46.855 0 0 1-2.48-.567c-1.449-.382-2.462-1.114-3.012-2.177-.835-1.616-.605-3.943.724-7.321a20.232 20.232 0 0 0 1.396-7.112v-.026c0-.73-.346-1.388-.887-2.112-4.722-4.845-7.387-10.18-7.629-15.438a22.977 22.977 0 0 1 .094-3.169c-.302-1.182-1.231-1.894-2.118-2.184-1.104-.361-2.654-.242-3.692 1.178a66.829 66.829 0 0 0-6.77 11.511 25.251 25.251 0 0 0-1.353 3.653c.411.536 2.411 3.015 5.862 5.302.407-.176 2.87-1.209 5.052-1.334 1.088-.062 2.487-.098 2.974.081l-.601 1.571s.02.011.071.023c-.02-.005-.502-.105-2.345.001-1.145.065-2.434.444-3.338.761 4.497 2.551 6.099 2.926 6.116 2.929a.845.845 0 0 1 .65.996.849.849 0 0 1-.999.647c-.186-.037-1.957-.444-6.985-3.327-3.41-1.955-5.732-4.228-6.945-5.588Zm16.51-32.06a24.292 24.292 0 0 0-5.69 3.556c-2.352 1.983-4.067 4.298-4.75 5.288l2.569 3.141c.897-1.15 2.357-2.996 3.387-4.174 2.719-3.114 5.85-5.357 5.982-5.451a.926.926 0 0 1 .17-.095c.131-.097.303-.219.52-.36l-2.188-1.905Zm.176 5.584a34.757 34.757 0 0 0-3.365 3.32c-.69.789-1.598 1.912-2.386 2.906a5.16 5.16 0 0 1 1.908.254c.751.245 1.403.64 1.929 1.145.493-2.891 1.285-5.67 1.914-7.625Zm2.474-1.942c-.427 1.149-2.476 6.862-3.014 12.119.061.327.088.669.082 1.016-.03 1.621.087 3.171.353 4.604.978 5.262 3.908 8.691 5.658 10.739.309.361.584.685.814.974.073.091.145.183.216.276a41.877 41.877 0 0 0 4.848 4.203c7.138 5.325 10.551 4.994 12.191 4.835l.238-.023c.424-.037 1.193-.271 2.006-.519 2.114-.645 5.009-1.527 7.145-.694 1.971.77 2.149 2.73 2.32 4.625.123 1.359.251 2.765.989 3.86 1.584 2.348 5.658 1.165 7.815.096.853-.423 1.494-.943 2.059-1.403.969-.787 1.972-1.601 3.483-1.229.966.238 1.59.896 2.193 1.532.766.806 1.427 1.503 2.795 1.471 1.355-.032 1.499-.41 1.761-1.094.175-.458.393-1.029.964-1.451 1.018-.752 1.879-.322 2.508-.009.45.225.876.437 1.513.428.799-.012 2.094-1.228 2.993-2.323-1.015-.853-2.816-2.846-4.833-7.282-1.152-2.533-1.386-4.446-1.635-6.473-.388-3.168-.828-6.758-5.098-14.041-5.016-8.554-11.39-12.179-15.2-14.345-.489-.279-.931-.531-1.315-.761-.307-.185-1.022-.526-1.595-.799a36.331 36.331 0 0 1-1.038-.507c-3.561-1.878-8.269-2.676-14.011-2.377 4.302 1.256 10.698 3.822 16.642 8.9 9.964 8.513 15.401 25.052 15.628 25.751a.839.839 0 0 1-.555 1.055.857.857 0 0 1-1.072-.545c-.052-.159-4.996-15.193-13.731-23.722-.554 1.653-1.663 5.491-1.042 8.16.255 1.097.497 2.046.711 2.883.529 2.071.911 3.567.981 5.329v.033c0 .448-.36.82-.82.838a.848.848 0 0 1-.886-.806c-.06-1.511-.393-2.876-.859-4.705l-1.596 1.635a.864.864 0 0 1-1.207.025.83.83 0 0 1-.025-1.187l2.342-2.399a84.32 84.32 0 0 1-.305-1.274c-.846-3.651.968-8.793 1.339-9.784a.22.22 0 0 0-.023-.02c-3.19-2.725-6.546-4.701-9.61-6.125 1.238 2.237 2.836 5.89 1.656 8.215-.784 1.544-2.194 2.719-3.557 3.856-1.491 1.243-2.898 2.417-3.427 3.954a.857.857 0 0 1-1.083.526.835.835 0 0 1-.534-1.064c.681-1.978 2.338-3.36 3.94-4.696.582-.485 1.15-.958 1.655-1.445-1.108-.352-3.206-.939-4.918-.958-2.438-.027-5.891 1.17-5.925 1.182a.859.859 0 0 1-1.091-.509.835.835 0 0 1 .518-1.072c.152-.054 3.772-1.31 6.517-1.28 2.41.026 5.317.989 6.084 1.258a5.07 5.07 0 0 0 .293-.501c1.062-2.094-1.663-6.904-2.701-8.425a.836.836 0 0 1-.094-.18c-4.857-1.896-8.459-2.356-8.522-2.364l-.024-.003c-7.725 1.157-11.18 3.471-11.904 4.016Zm5.386 33.234a21.96 21.96 0 0 1-1.507 7.427c-1.11 2.822-1.377 4.826-.793 5.954.324.629.956 1.059 1.931 1.317a45.28 45.28 0 0 0 2.392.546c1.775.37 3.308.689 4.956 1.809 1.392.945 1.046 2.263.84 3.05-.089.341-.191.727-.102.859.036.054.276.334 1.471.527 2.047.329 4.155-.303 5.848-.811 1.572-.472 2.707-.812 3.555-.347.261.143.604.43.753.985.258.966-.009 1.781-.224 2.436-.301.918-.374 1.137.529 1.655.768.44 1.764.407 2.818.37 1.623-.055 3.617-.123 5.047 1.741 1.123-.611 4.952-2.829 7.952-6.194 3.156-3.542 5.568-8.243 6.132-9.384a1.259 1.259 0 0 0-.196-.067c-.621-.153-.993.093-1.98.895-.603.491-1.355 1.101-2.378 1.608-3.304 1.637-7.907 2.445-10.006-.667-.978-1.45-1.131-3.144-1.267-4.639-.163-1.804-.302-2.843-1.25-3.213-1.576-.616-4.139.166-6.01.736-.941.287-1.754.534-2.358.588l-.223.021c-1.857.181-5.72.555-13.391-5.167a47.653 47.653 0 0 1-2.539-2.035ZM165.326 84.013c-3.81 0-7.549-.812-11.189-2.435a70.149 70.149 0 0 1-11.984-6.832 5.264 5.264 0 0 1-.465-.37l-4.038 3.2a.86.86 0 0 1-.979.062c-.14-.085-3.461-2.106-6.272-5.337-2.821-3.243-4.057-6.427-4.108-6.561a.828.828 0 0 1 .159-.853l2.481-2.764a.842.842 0 0 1 .205-.167c-1.269-2.432-2.972-6.957-3.586-14.408-.544-6.598.304-12.008 2.519-16.08.118-.219.294-.576.483-.96.325-.66.66-1.343.892-1.716.228-.367.476-.79.751-1.259 2.136-3.64 6.112-10.416 15.195-15.579 7.698-4.376 11.529-4.83 14.908-5.232 2.011-.239 3.746-.446 6.083-1.476 5.944-2.62 7.131-4.763 7.143-4.785a.87.87 0 0 1 1.248-.318c.623.424 3.732 2.65 3.765 4.8.017 1.042-.35 1.755-.618 2.275-.275.534-.265.547-.149.7.124.162.351.252.711.386.858.318 2.155.797 2.215 3.266.048 1.966-1.005 3.064-1.862 3.86 1.694.833 6.038 3.105 9.484 6.081 2.226 1.922 3.972 4.17 5.045 5.716.818 1.18 1.311 1.958 1.593 2.49 1.098-.585 1.844-.837 2.424-1.033.681-.23 1.056-.356 1.645-.894 1.959-1.79 5.16-.383 5.547-.12a.898.898 0 0 1 .39.643c.054.481-.225.78-.733 1.32-.843.899-2.597 2.77-3.44 5.944-.755 2.845-.597 6.15-.458 9.067.088 1.841.17 3.58.002 4.955-.55 4.494-1.695 13.845-8.696 21.532-3.348 3.676-7.549 6.887-11.895 9.138a.863.863 0 0 1-.25.128 35.946 35.946 0 0 1-3.229 1.453c-3.692 1.442-7.347 2.163-10.937 2.163Zm-4.681-2.153c6.369 1.176 12.57-.233 17.974-2.924.375-.752 1.459-3.267 1.378-7.07-.095-4.48-.883-5.896-.891-5.91a.841.841 0 0 1 .299-1.144.852.852 0 0 1 1.155.266c.105.166 1.036 1.764 1.142 6.753.052 2.475-.342 4.454-.768 5.847a41.258 41.258 0 0 0 9.434-7.669 28.243 28.243 0 0 0 3.345-4.504c-.311-.752-1.014-2.923-.632-6.57.444-4.246.607-6.562.609-6.585a.855.855 0 0 1 .908-.78c.47.031.825.432.792.895-.002.024-.167 2.364-.614 6.643-.195 1.87-.078 3.29.101 4.268 2.726-5.493 3.389-10.911 3.764-13.978.151-1.235.072-2.906-.012-4.674-.145-3.037-.309-6.479.512-9.571.877-3.306 2.606-5.332 3.604-6.41-.794-.204-1.914-.312-2.561.28-.855.78-1.502.999-2.252 1.252-.708.238-1.59.536-3.124 1.47-1.415.864-1.449 1.995-1.387 3.77.042 1.173.088 2.504-.607 3.68-1.217 2.056-2.698 1.583-3.677 1.273-.53-.169-.991-.316-1.472-.206-.045.363.27 1.38.504 2.137.538 1.738 1.274 4.118.875 6.52-.223 1.342-.631 2.163-1.285 2.583-.764.492-1.576.286-2.229.12-.858-.217-1.025-.198-1.271.155-.943 1.345-1.207 2.573-1.572 4.272a44.226 44.226 0 0 1-.576 2.442c-.388 1.427-1.131 2.425-2.211 2.966-1.641.822-4.004.596-7.436-.713a21.132 21.132 0 0 0-7.223-1.374h-.027c-.741 0-1.409.34-2.145.873-4.921 4.65-10.34 7.273-15.68 7.511a24.06 24.06 0 0 1-3.219-.092c-1.2.297-1.923 1.211-2.218 2.085-.366 1.087-.245 2.613 1.196 3.635a68.4 68.4 0 0 0 11.692 6.665 26.08 26.08 0 0 0 3.711 1.333c.544-.405 3.062-2.374 5.385-5.772-.18-.4-1.228-2.826-1.355-4.974-.063-1.071-.1-2.449.082-2.928l1.596.591s.011-.019.023-.069c-.005.02-.107.495.001 2.308.066 1.128.451 2.397.772 3.287 2.592-4.427 2.973-6.005 2.976-6.021a.857.857 0 0 1 1.011-.64.836.836 0 0 1 .658.983c-.038.183-.451 1.927-3.38 6.878-1.986 3.357-4.294 5.643-5.675 6.837Zm-32.563-16.255c.434.96 1.597 3.286 3.612 5.602 2.014 2.315 4.365 4.004 5.371 4.677l3.19-2.53c-1.168-.883-3.043-2.32-4.239-3.334-3.164-2.678-5.442-5.76-5.537-5.89a.823.823 0 0 1-.096-.167 9.49 9.49 0 0 1-.366-.513l-1.935 2.155Zm5.671-.173c.899 1.004 2.063 2.204 3.373 3.313.801.679 1.942 1.573 2.951 2.35a4.952 4.952 0 0 1 .258-1.88c.249-.74.65-1.381 1.163-1.9-2.937-.484-5.759-1.264-7.745-1.883Zm-1.972-2.436c1.167.42 6.97 2.437 12.309 2.967.333-.06.679-.086 1.032-.08 1.646.029 3.221-.086 4.676-.348 5.345-.963 8.828-3.847 10.908-5.57.367-.305.696-.576.989-.802.092-.072.186-.143.28-.213a41.613 41.613 0 0 0 4.269-4.773c5.409-7.027 5.072-10.388 4.911-12.002l-.023-.235c-.038-.418-.276-1.174-.528-1.975-.655-2.08-1.551-4.931-.704-7.034.782-1.941 2.772-2.116 4.697-2.285 1.381-.12 2.808-.246 3.921-.974 2.385-1.559 1.183-5.57.097-7.694-.429-.84-.958-1.47-1.425-2.027-.799-.954-1.626-1.941-1.248-3.43.242-.95.91-1.564 1.556-2.158.819-.754 1.527-1.405 1.494-2.752-.033-1.335-.416-1.476-1.111-1.734-.466-.172-1.045-.387-1.474-.95-.764-1.001-.327-1.849-.009-2.468.229-.444.444-.863.434-1.49-.011-.786-1.247-2.062-2.359-2.947-.866 1-2.891 2.773-7.396 4.759-2.572 1.134-4.516 1.365-6.574 1.61-3.218.381-6.865.815-14.261 5.019-8.689 4.938-12.371 11.214-14.571 14.965-.283.482-.539.917-.773 1.294-.188.303-.534 1.007-.811 1.571-.202.41-.389.79-.515 1.022-1.908 3.506-2.718 8.142-2.414 13.794 1.276-4.235 3.881-10.532 9.039-16.384 8.646-9.81 25.445-15.164 26.156-15.387a.855.855 0 0 1 1.07.546.838.838 0 0 1-.553 1.056c-.162.05-15.432 4.919-24.094 13.519 1.679.545 5.577 1.637 8.288 1.026 1.115-.251 2.078-.49 2.928-.7 2.104-.52 3.624-.897 5.412-.966h.034c.456 0 .834.354.851.807a.845.845 0 0 1-.818.872c-1.535.06-2.921.387-4.779.846l1.661 1.571c.34.322.351.854.025 1.188a.861.861 0 0 1-1.205.025l-2.437-2.305c-.407.097-.837.198-1.294.3-3.708.833-8.931-.953-9.938-1.319a.379.379 0 0 1-.02.023c-2.768 3.14-4.775 6.445-6.221 9.462 2.272-1.22 5.983-2.792 8.344-1.63 1.569.771 2.762 2.16 3.917 3.502 1.262 1.467 2.454 2.853 4.016 3.374a.837.837 0 0 1 .534 1.066.855.855 0 0 1-1.081.526c-2.009-.67-3.412-2.302-4.769-3.88-.493-.573-.974-1.131-1.469-1.63-.357 1.092-.954 3.157-.973 4.843-.027 2.4 1.189 5.8 1.201 5.834a.837.837 0 0 1-.517 1.073.855.855 0 0 1-1.089-.51c-.055-.15-1.331-3.713-1.3-6.415.027-2.373 1.005-5.236 1.278-5.99a5.22 5.22 0 0 0-.509-.29c-2.127-1.044-7.013 1.638-8.557 2.66a.826.826 0 0 1-.183.092c-1.925 4.783-2.393 8.329-2.401 8.391l-.003.024c1.175 7.605 3.526 11.007 4.079 11.72Zm33.755-5.303c1.842.044 4.566.348 7.543 1.483 2.867 1.094 4.903 1.357 6.049.782.638-.32 1.075-.942 1.336-1.902.237-.87.399-1.625.555-2.354.376-1.748.7-3.258 1.837-4.88.96-1.37 2.3-1.03 3.099-.827.346.087.738.187.872.1.055-.035.339-.271.535-1.448.335-2.015-.308-4.09-.824-5.758-.478-1.547-.825-2.665-.352-3.5.145-.257.437-.595 1.001-.741.98-.254 1.809.009 2.474.22.932.296 1.155.368 1.681-.52.447-.757.413-1.737.376-2.775-.056-1.598-.126-3.561 1.767-4.97-.619-1.105-2.872-4.875-6.291-7.828-3.597-3.107-8.372-5.482-9.53-6.038a1.068 1.068 0 0 0-.068.193c-.156.612.094.978.909 1.95.498.594 1.118 1.334 1.633 2.341 1.663 3.253 2.483 7.785-.677 9.852-1.474.963-3.194 1.113-4.712 1.247-1.833.16-2.888.297-3.264 1.23-.625 1.553.168 4.076.748 5.918.291.926.543 1.727.597 2.321l.021.22c.184 1.829.564 5.632-5.248 13.184a46.362 46.362 0 0 1-2.067 2.5ZM403.766 0c3.81 0 7.549.812 11.189 2.435a70.151 70.151 0 0 1 11.984 6.832c.164.116.319.24.465.37l4.039-3.2a.859.859 0 0 1 .978-.062c.14.085 3.461 2.106 6.272 5.337 2.821 3.243 4.057 6.427 4.108 6.56a.829.829 0 0 1-.159.854l-2.481 2.764a.856.856 0 0 1-.204.166c1.268 2.433 2.971 6.958 3.586 14.409.543 6.598-.305 12.008-2.52 16.08-.118.219-.293.575-.483.96-.325.66-.66 1.343-.892 1.716-.228.367-.476.79-.751 1.259-2.136 3.64-6.112 10.416-15.195 15.579-7.698 4.376-11.529 4.83-14.908 5.232-2.011.239-3.746.446-6.082 1.476-5.945 2.62-7.132 4.763-7.144 4.785a.87.87 0 0 1-.555.434.865.865 0 0 1-.693-.116c-.623-.425-3.731-2.65-3.765-4.8-.017-1.042.35-1.755.618-2.275.275-.534.265-.547.15-.7-.125-.162-.352-.252-.711-.386-.859-.318-2.156-.797-2.216-3.266-.048-1.966 1.005-3.064 1.862-3.86-1.694-.833-6.038-3.105-9.484-6.081-2.226-1.923-3.971-4.17-5.045-5.716-.818-1.18-1.311-1.958-1.593-2.49-1.098.585-1.844.837-2.424 1.033-.68.23-1.056.356-1.645.894-1.959 1.79-5.16.383-5.547.12a.9.9 0 0 1-.389-.643c-.055-.481.225-.78.732-1.32.843-.899 2.597-2.77 3.44-5.944.755-2.845.597-6.15.458-9.067-.088-1.841-.17-3.58-.002-4.955.55-4.494 1.695-13.845 8.697-21.532 3.347-3.676 7.549-6.887 11.895-9.138.075-.057.16-.1.249-.128a35.977 35.977 0 0 1 3.229-1.453C396.522.72 400.176 0 403.766 0Zm4.681 2.153c-6.369-1.176-12.569.232-17.974 2.924-.375.752-1.459 3.267-1.378 7.07.095 4.48.883 5.896.891 5.91a.841.841 0 0 1-.299 1.144.851.851 0 0 1-1.154-.266c-.106-.166-1.037-1.764-1.143-6.753-.052-2.475.342-4.454.768-5.847a41.26 41.26 0 0 0-9.434 7.669 28.361 28.361 0 0 0-3.345 4.504c.312.752 1.014 2.923.633 6.57-.445 4.246-.608 6.562-.609 6.585a.855.855 0 0 1-.909.78.843.843 0 0 1-.792-.895c.002-.024.167-2.364.614-6.643.195-1.87.078-3.29-.101-4.268-2.725 5.494-3.388 10.911-3.764 13.978-.151 1.235-.072 2.905.012 4.674.145 3.037.309 6.479-.511 9.571-.878 3.306-2.607 5.332-3.605 6.41.794.204 1.914.312 2.561-.28.855-.78 1.502-.999 2.252-1.252.709-.239 1.59-.536 3.124-1.47 1.416-.864 1.449-1.995 1.387-3.77-.042-1.173-.088-2.504.607-3.68 1.217-2.056 2.698-1.583 3.677-1.273.53.169.991.316 1.472.206.045-.363-.27-1.38-.504-2.137-.537-1.738-1.273-4.118-.875-6.52.223-1.342.631-2.163 1.285-2.584.764-.491 1.576-.286 2.229-.12.858.218 1.025.199 1.271-.154.943-1.345 1.207-2.573 1.572-4.272.154-.717.328-1.529.576-2.442.388-1.427 1.131-2.425 2.211-2.966 1.641-.823 4.004-.596 7.436.713a21.13 21.13 0 0 0 7.223 1.374h.027c.741 0 1.41-.34 2.145-.874 4.921-4.649 10.34-7.272 15.68-7.51a24.06 24.06 0 0 1 3.219.092c1.2-.297 1.923-1.211 2.218-2.085.367-1.087.246-2.613-1.196-3.635a68.393 68.393 0 0 0-11.692-6.665 26.103 26.103 0 0 0-3.71-1.333c-.545.405-3.063 2.374-5.386 5.772.18.4 1.229 2.826 1.356 4.974.063 1.071.099 2.449-.083 2.928l-1.596-.591s-.01.019-.022.069c.004-.02.106-.495-.002-2.308-.066-1.128-.451-2.397-.772-3.287-2.592 4.427-2.973 6.005-2.976 6.02a.857.857 0 0 1-1.011.641.838.838 0 0 1-.658-.983c.038-.183.451-1.927 3.38-6.878 1.986-3.357 4.294-5.643 5.675-6.837Zm32.563 16.255a23.744 23.744 0 0 0-3.612-5.602c-2.014-2.315-4.365-4.004-5.371-4.677l-3.19 2.53c1.168.883 3.043 2.32 4.24 3.334 3.163 2.678 5.441 5.76 5.537 5.89.039.054.07.11.096.167.098.129.222.299.366.513l1.934-2.155Zm-5.671.173c-.899-1.004-2.063-2.204-3.373-3.313a88.366 88.366 0 0 0-2.951-2.35 4.932 4.932 0 0 1-.258 1.88 4.914 4.914 0 0 1-1.163 1.899c2.937.485 5.759 1.265 7.745 1.884Zm1.972 2.436c-1.167-.42-6.97-2.437-12.309-2.968a5.31 5.31 0 0 1-1.031.082c-1.647-.03-3.222.085-4.677.347-5.345.963-8.827 3.847-10.908 5.57a41.42 41.42 0 0 1-.988.802c-.093.072-.187.143-.281.213a41.606 41.606 0 0 0-4.269 4.773c-5.408 7.027-5.072 10.388-4.911 12.002l.023.235c.038.417.276 1.174.528 1.974.655 2.082 1.551 4.932.704 7.035-.781 1.941-2.772 2.116-4.697 2.285-1.38.12-2.808.246-3.921.974-2.384 1.559-1.183 5.57-.097 7.694.429.84.958 1.47 1.425 2.027.8.954 1.626 1.941 1.248 3.43-.242.95-.91 1.564-1.556 2.158-.819.754-1.527 1.405-1.494 2.752.033 1.335.416 1.476 1.111 1.734.466.172 1.045.386 1.474.95.764 1.001.327 1.849.009 2.468-.228.444-.444.863-.434 1.49.012.786 1.247 2.062 2.359 2.947.866-1 2.891-2.773 7.396-4.76 2.572-1.133 4.516-1.364 6.574-1.608 3.218-.383 6.865-.816 14.261-5.02 8.689-4.938 12.371-11.214 14.571-14.965.283-.481.539-.917.773-1.294.188-.303.534-1.007.811-1.571.202-.41.389-.79.515-1.022 1.908-3.506 2.718-8.142 2.415-13.794-1.277 4.235-3.882 10.532-9.04 16.384-8.646 9.81-25.445 15.164-26.155 15.387a.856.856 0 0 1-1.071-.546.838.838 0 0 1 .553-1.056c.162-.05 15.432-4.919 24.094-13.52-1.679-.544-5.577-1.636-8.288-1.025-1.115.251-2.078.49-2.928.7-2.104.52-3.623.897-5.412.966h-.034a.847.847 0 0 1-.851-.807.845.845 0 0 1 .818-.872c1.535-.06 2.921-.387 4.779-.846l-1.661-1.571a.833.833 0 0 1-.025-1.189.861.861 0 0 1 1.205-.024l2.437 2.305c.407-.097.837-.198 1.294-.3 3.709-.833 8.932.953 9.938 1.319l.02-.023c2.768-3.14 4.775-6.445 6.221-9.462-2.272 1.22-5.982 2.792-8.344 1.63-1.568-.771-2.762-2.16-3.917-3.502-1.262-1.467-2.454-2.853-4.016-3.374a.838.838 0 0 1-.534-1.066.855.855 0 0 1 1.081-.526c2.01.67 3.413 2.302 4.77 3.88.492.572.973 1.131 1.468 1.63.357-1.092.954-3.157.973-4.843.027-2.4-1.189-5.8-1.201-5.834a.838.838 0 0 1 .517-1.073.855.855 0 0 1 1.089.51c.055.15 1.331 3.713 1.3 6.415-.027 2.373-1.004 5.235-1.278 5.99.166.107.335.203.509.289 2.127 1.045 7.013-1.637 8.557-2.66a.853.853 0 0 1 .183-.091c1.925-4.783 2.393-8.329 2.401-8.391l.003-.024c-1.175-7.605-3.526-11.007-4.079-11.72Zm-33.755 5.303a22.91 22.91 0 0 1-7.543-1.483c-2.867-1.094-4.903-1.357-6.048-.782-.639.32-1.076.942-1.337 1.902-.236.87-.399 1.625-.555 2.354-.376 1.748-.7 3.258-1.837 4.88-.96 1.37-2.299 1.03-3.099.827-.346-.087-.738-.188-.872-.1-.055.035-.339.271-.535 1.448-.334 2.015.308 4.09.824 5.758.479 1.547.825 2.665.352 3.5-.145.257-.437.595-1.001.741-.98.254-1.808-.009-2.474-.22-.932-.296-1.155-.369-1.681.52-.447.757-.413 1.737-.376 2.775.056 1.598.126 3.56-1.767 4.97.619 1.105 2.873 4.875 6.291 7.828 3.597 3.107 8.372 5.482 9.531 6.038.028-.063.051-.127.067-.193.156-.612-.094-.978-.909-1.95-.498-.594-1.118-1.334-1.633-2.341-1.662-3.253-2.483-7.785.677-9.852 1.474-.963 3.194-1.113 4.712-1.247 1.833-.161 2.888-.297 3.264-1.231.625-1.552-.168-4.075-.747-5.917-.292-.926-.543-1.727-.598-2.321l-.021-.22c-.183-1.829-.564-5.632 5.248-13.184a46.878 46.878 0 0 1 2.067-2.5ZM642.794 84.013c-3.81 0-7.549-.812-11.189-2.435a70.157 70.157 0 0 1-11.985-6.832 5.415 5.415 0 0 1-.465-.37l-4.038 3.2a.86.86 0 0 1-.979.062c-.139-.085-3.46-2.106-6.271-5.337-2.821-3.243-4.057-6.427-4.109-6.561a.833.833 0 0 1 .159-.853l2.482-2.764a.857.857 0 0 1 .204-.167c-1.269-2.432-2.972-6.957-3.586-14.408-.543-6.598.305-12.008 2.52-16.08.118-.219.293-.576.483-.96.325-.66.66-1.343.891-1.716.228-.367.476-.79.752-1.259 2.136-3.64 6.111-10.416 15.195-15.579 7.698-4.376 11.529-4.83 14.908-5.232 2.01-.239 3.746-.446 6.082-1.476 5.945-2.62 7.132-4.763 7.144-4.785a.87.87 0 0 1 1.248-.318c.623.424 3.731 2.65 3.765 4.8.016 1.042-.35 1.755-.619 2.275-.274.534-.265.547-.149.7.125.162.351.252.711.386.859.318 2.155.797 2.216 3.266.048 1.966-1.005 3.064-1.862 3.86 1.694.833 6.038 3.105 9.484 6.081 2.226 1.922 3.971 4.17 5.044 5.716.819 1.18 1.312 1.958 1.593 2.49 1.098-.585 1.845-.837 2.425-1.033.68-.23 1.055-.356 1.644-.894 1.96-1.79 5.161-.383 5.548-.12a.9.9 0 0 1 .389.643c.054.481-.225.78-.732 1.32-.843.899-2.598 2.77-3.44 5.944-.755 2.845-.597 6.15-.458 9.067.087 1.841.17 3.58.002 4.955-.55 4.494-1.696 13.845-8.697 21.532-3.347 3.676-7.549 6.887-11.895 9.138a.858.858 0 0 1-.249.128 35.946 35.946 0 0 1-3.229 1.453c-3.693 1.442-7.347 2.163-10.937 2.163Zm-4.681-2.153c6.369 1.176 12.569-.233 17.974-2.924.374-.752 1.459-3.267 1.378-7.07-.095-4.48-.883-5.896-.891-5.91a.841.841 0 0 1 .299-1.144.851.851 0 0 1 1.154.266c.106.166 1.037 1.764 1.142 6.753.052 2.475-.341 4.454-.768 5.847a41.243 41.243 0 0 0 9.435-7.669 28.365 28.365 0 0 0 3.345-4.504c-.312-.752-1.014-2.923-.633-6.57.444-4.246.608-6.562.609-6.585a.855.855 0 0 1 .909-.78c.47.031.825.432.792.895-.002.024-.167 2.364-.614 6.643-.195 1.87-.078 3.29.101 4.268 2.725-5.493 3.388-10.911 3.764-13.978.151-1.235.071-2.906-.013-4.674-.144-3.037-.309-6.479.512-9.571.878-3.306 2.606-5.332 3.605-6.41-.794-.204-1.914-.312-2.561.28-.855.78-1.502.999-2.252 1.252-.709.238-1.59.536-3.124 1.47-1.416.864-1.449 1.995-1.387 3.77.042 1.173.088 2.504-.608 3.68-1.216 2.056-2.697 1.583-3.676 1.273-.53-.169-.992-.316-1.472-.206-.046.363.269 1.38.503 2.137.538 1.738 1.274 4.118.876 6.52-.223 1.342-.631 2.163-1.286 2.583-.763.492-1.576.286-2.228.12-.858-.217-1.025-.198-1.271.155-.944 1.345-1.207 2.573-1.572 4.272-.154.717-.328 1.529-.576 2.442-.388 1.427-1.132 2.425-2.212 2.966-1.64.822-4.004.596-7.435-.713a21.136 21.136 0 0 0-7.223-1.374h-.027c-.741 0-1.41.34-2.145.873-4.921 4.65-10.34 7.273-15.68 7.511a24.06 24.06 0 0 1-3.219-.092c-1.2.297-1.923 1.211-2.218 2.085-.367 1.087-.246 2.613 1.196 3.635a68.43 68.43 0 0 0 11.691 6.665c1.238.552 2.477.993 3.711 1.333.544-.405 3.063-2.374 5.386-5.772-.18-.4-1.229-2.826-1.356-4.974-.063-1.071-.099-2.449.083-2.928l1.596.591s.01-.019.022-.069c-.005.02-.106.495.001 2.308.067 1.128.451 2.397.773 3.287 2.591-4.427 2.972-6.005 2.976-6.021a.857.857 0 0 1 1.011-.64c.456.096.75.532.657.983-.037.183-.451 1.927-3.379 6.878-1.986 3.357-4.295 5.643-5.675 6.837ZM605.55 65.605c.433.96 1.596 3.286 3.612 5.602 2.013 2.315 4.365 4.004 5.371 4.677l3.19-2.53c-1.169-.883-3.043-2.32-4.24-3.334-3.163-2.678-5.441-5.76-5.537-5.89a.873.873 0 0 1-.096-.167 10.76 10.76 0 0 1-.366-.513l-1.934 2.155Zm5.671-.173a34.728 34.728 0 0 0 3.373 3.313 88.366 88.366 0 0 0 2.951 2.35 4.933 4.933 0 0 1 .258-1.88c.249-.74.65-1.381 1.163-1.9-2.937-.484-5.759-1.264-7.745-1.883Zm-1.972-2.436c1.167.42 6.97 2.437 12.308 2.967.333-.06.68-.086 1.032-.08 1.647.029 3.222-.086 4.676-.348 5.345-.963 8.828-3.847 10.909-5.57.366-.305.695-.576.988-.802.093-.072.186-.143.281-.213a41.613 41.613 0 0 0 4.269-4.773c5.408-7.027 5.072-10.388 4.91-12.002l-.023-.235c-.038-.418-.275-1.174-.527-1.975-.655-2.08-1.551-4.931-.704-7.034.781-1.941 2.772-2.116 4.697-2.285 1.38-.12 2.808-.246 3.921-.974 2.384-1.559 1.182-5.57.097-7.694-.429-.84-.958-1.47-1.425-2.027-.8-.954-1.627-1.941-1.248-3.43.241-.95.91-1.564 1.555-2.158.82-.754 1.527-1.405 1.495-2.752-.033-1.335-.416-1.476-1.111-1.734-.466-.172-1.045-.387-1.474-.95-.764-1.001-.328-1.849-.009-2.468.228-.444.444-.863.434-1.49-.012-.786-1.247-2.062-2.359-2.947-.866 1-2.891 2.773-7.396 4.759-2.572 1.134-4.516 1.365-6.574 1.61-3.218.381-6.865.815-14.262 5.019-8.688 4.938-12.37 11.214-14.57 14.965-.283.482-.539.917-.773 1.294-.188.303-.534 1.007-.811 1.571-.202.41-.389.79-.515 1.022-1.908 3.506-2.718 8.142-2.415 13.794 1.276-4.235 3.882-10.532 9.04-16.384 8.646-9.81 25.444-15.164 26.155-15.387a.856.856 0 0 1 1.071.546.838.838 0 0 1-.553 1.056c-.162.05-15.432 4.919-24.094 13.519 1.678.545 5.577 1.637 8.287 1.026 1.115-.251 2.079-.49 2.929-.7 2.104-.52 3.623-.897 5.412-.966h.034c.455 0 .833.354.851.807a.845.845 0 0 1-.818.872c-1.536.06-2.921.387-4.779.846l1.66 1.571c.34.322.351.854.026 1.188a.863.863 0 0 1-1.206.025l-2.436-2.305c-.407.097-.838.198-1.294.3-3.709.833-8.932-.953-9.938-1.319a.45.45 0 0 0-.02.023c-2.768 3.14-4.775 6.445-6.222 9.462 2.273-1.22 5.983-2.792 8.345-1.63 1.568.771 2.762 2.16 3.917 3.502 1.261 1.467 2.454 2.853 4.016 3.374a.839.839 0 0 1 .534 1.066.855.855 0 0 1-1.081.526c-2.01-.67-3.413-2.302-4.77-3.88-.492-.573-.973-1.131-1.468-1.63-.358 1.092-.954 3.157-.973 4.843-.027 2.4 1.189 5.8 1.201 5.834a.838.838 0 0 1-.517 1.073.854.854 0 0 1-1.089-.51c-.055-.15-1.331-3.713-1.3-6.415.027-2.373 1.004-5.236 1.278-5.99a5.22 5.22 0 0 0-.509-.29c-2.128-1.044-7.013 1.638-8.557 2.66a.848.848 0 0 1-.183.092c-1.925 4.783-2.393 8.329-2.401 8.391l-.003.024c1.175 7.605 3.525 11.007 4.079 11.72Zm33.755-5.303c1.842.044 4.566.348 7.543 1.483 2.867 1.094 4.903 1.357 6.048.782.639-.32 1.076-.942 1.337-1.902.236-.87.399-1.625.555-2.354.375-1.748.699-3.258 1.837-4.88.96-1.37 2.299-1.03 3.099-.827.346.087.737.187.872.1.055-.035.339-.271.535-1.448.334-2.015-.308-4.09-.824-5.758-.479-1.547-.825-2.665-.353-3.5.146-.257.438-.595 1.001-.741.981-.254 1.809.009 2.475.22.932.296 1.154.368 1.68-.52.447-.757.413-1.737.377-2.775-.057-1.598-.126-3.561 1.767-4.97-.62-1.105-2.873-4.875-6.291-7.828-3.597-3.107-8.372-5.482-9.531-6.038a1.247 1.247 0 0 0-.068.193c-.155.612.095.978.909 1.95.499.594 1.118 1.334 1.634 2.341 1.662 3.253 2.483 7.785-.678 9.852-1.473.963-3.193 1.113-4.712 1.247-1.833.16-2.887.297-3.263 1.23-.626 1.553.168 4.076.747 5.918.292.926.543 1.727.598 2.321l.021.22c.183 1.829.563 5.632-5.249 13.184a46.35 46.35 0 0 1-2.066 2.5ZM881.234 0c3.81 0 7.549.812 11.189 2.435a70.151 70.151 0 0 1 11.984 6.832c.164.116.319.24.465.37l4.038-3.2a.86.86 0 0 1 .979-.062c.14.085 3.461 2.106 6.272 5.337 2.821 3.243 4.057 6.427 4.108 6.56a.83.83 0 0 1-.159.854l-2.482 2.764a.837.837 0 0 1-.204.166c1.269 2.433 2.972 6.958 3.586 14.409.544 6.598-.304 12.008-2.519 16.08-.118.219-.294.575-.483.96-.325.66-.66 1.343-.892 1.716-.228.367-.476.79-.751 1.259-2.136 3.64-6.112 10.416-15.195 15.579-7.699 4.376-11.529 4.83-14.908 5.232-2.011.239-3.746.446-6.083 1.476-5.944 2.62-7.131 4.763-7.143 4.785a.87.87 0 0 1-.555.434.865.865 0 0 1-.693-.116c-.623-.425-3.732-2.65-3.765-4.8-.017-1.042.35-1.755.618-2.275.275-.534.265-.547.149-.7-.124-.162-.351-.252-.711-.386-.858-.318-2.155-.797-2.215-3.266-.048-1.966 1.005-3.064 1.862-3.86-1.694-.833-6.038-3.105-9.484-6.081-2.226-1.923-3.972-4.17-5.045-5.716-.818-1.18-1.311-1.958-1.593-2.49-1.098.585-1.844.837-2.424 1.033-.681.23-1.056.356-1.645.894-1.959 1.79-5.16.383-5.547.12a.898.898 0 0 1-.39-.643c-.054-.481.225-.78.733-1.32.843-.899 2.597-2.77 3.44-5.944.755-2.845.597-6.15.458-9.067-.088-1.841-.171-3.58-.002-4.955.55-4.494 1.695-13.845 8.696-21.532 3.348-3.676 7.549-6.887 11.895-9.138a.865.865 0 0 1 .25-.128 35.96 35.96 0 0 1 3.228-1.453C873.989.72 877.644 0 881.234 0Zm4.681 2.153c-6.369-1.176-12.57.232-17.974 2.924-.375.752-1.459 3.267-1.378 7.07.095 4.48.883 5.896.891 5.91a.841.841 0 0 1-.299 1.144.852.852 0 0 1-1.155-.266c-.105-.166-1.036-1.764-1.142-6.753-.052-2.475.342-4.454.768-5.847a41.26 41.26 0 0 0-9.434 7.669 28.308 28.308 0 0 0-3.346 4.504c.312.752 1.015 2.923.633 6.57-.444 4.246-.607 6.562-.609 6.585a.855.855 0 0 1-.908.78.843.843 0 0 1-.792-.895c.002-.024.166-2.364.614-6.643.195-1.87.078-3.29-.101-4.268-2.726 5.494-3.389 10.911-3.764 13.978-.151 1.235-.072 2.905.012 4.674.145 3.037.309 6.479-.512 9.571-.877 3.306-2.606 5.332-3.604 6.41.794.204 1.914.312 2.561-.28.855-.78 1.502-.999 2.252-1.252.708-.239 1.59-.536 3.124-1.47 1.415-.864 1.449-1.995 1.387-3.77-.042-1.173-.088-2.504.607-3.68 1.216-2.056 2.698-1.583 3.677-1.273.53.169.991.316 1.472.206.045-.363-.27-1.38-.504-2.137-.538-1.738-1.274-4.118-.875-6.52.223-1.342.631-2.163 1.285-2.584.764-.491 1.576-.286 2.229-.12.858.218 1.025.199 1.271-.154.943-1.345 1.207-2.573 1.571-4.272a45.29 45.29 0 0 1 .577-2.442c.387-1.427 1.131-2.425 2.211-2.966 1.641-.823 4.004-.596 7.436.713a21.13 21.13 0 0 0 7.223 1.374h.027c.741 0 1.409-.34 2.145-.874 4.921-4.649 10.34-7.272 15.68-7.51a24.06 24.06 0 0 1 3.219.092c1.2-.297 1.923-1.211 2.217-2.085.367-1.087.246-2.613-1.195-3.635a68.393 68.393 0 0 0-11.692-6.665 26.07 26.07 0 0 0-3.711-1.333c-.544.405-3.062 2.374-5.385 5.772.179.4 1.228 2.826 1.355 4.974.063 1.071.1 2.449-.082 2.928l-1.596-.591s-.011.019-.023.069c.005-.02.107-.495-.001-2.308-.066-1.128-.451-2.397-.773-3.287-2.591 4.427-2.972 6.005-2.975 6.02a.857.857 0 0 1-1.011.641.836.836 0 0 1-.658-.983c.038-.183.451-1.927 3.38-6.878 1.986-3.357 4.294-5.643 5.675-6.837Zm32.563 16.255a23.812 23.812 0 0 0-3.612-5.602c-2.014-2.315-4.365-4.004-5.371-4.677l-3.19 2.53c1.168.883 3.043 2.32 4.239 3.334 3.164 2.678 5.442 5.76 5.537 5.89.04.054.071.11.096.167.099.129.223.299.366.513l1.935-2.155Zm-5.671.173c-.899-1.004-2.063-2.204-3.373-3.313-.801-.679-1.942-1.573-2.951-2.35a4.952 4.952 0 0 1-.258 1.88 4.926 4.926 0 0 1-1.163 1.899c2.937.485 5.759 1.265 7.745 1.884Zm1.972 2.436c-1.167-.42-6.97-2.437-12.309-2.968-.333.06-.679.087-1.032.082-1.647-.03-3.221.085-4.676.347-5.345.963-8.828 3.847-10.908 5.57a39.4 39.4 0 0 1-.989.802c-.092.072-.186.143-.28.213a41.606 41.606 0 0 0-4.269 4.773c-5.409 7.027-5.072 10.388-4.911 12.002l.023.235c.038.417.276 1.174.528 1.974.654 2.082 1.551 4.932.704 7.035-.782 1.941-2.772 2.116-4.697 2.285-1.381.12-2.808.246-3.921.974-2.385 1.559-1.183 5.57-.097 7.694.429.84.958 1.47 1.424 2.027.8.954 1.627 1.941 1.249 3.43-.242.95-.91 1.564-1.556 2.158-.819.754-1.527 1.405-1.494 2.752.033 1.335.416 1.476 1.111 1.734.465.172 1.045.386 1.474.95.764 1.001.327 1.849.009 2.468-.229.444-.444.863-.435 1.49.012.786 1.248 2.062 2.36 2.947.866-1 2.891-2.773 7.396-4.76 2.572-1.133 4.516-1.364 6.574-1.608 3.218-.383 6.865-.816 14.261-5.02 8.689-4.938 12.371-11.214 14.571-14.965.283-.481.539-.917.773-1.294.188-.303.534-1.007.811-1.571.202-.41.389-.79.515-1.022 1.908-3.506 2.718-8.142 2.414-13.794-1.276 4.235-3.881 10.532-9.039 16.384-8.646 9.81-25.445 15.164-26.156 15.387a.854.854 0 0 1-1.07-.546.838.838 0 0 1 .553-1.056c.161-.05 15.432-4.919 24.094-13.52-1.679-.544-5.577-1.636-8.288-1.025-1.115.251-2.078.49-2.928.7-2.104.52-3.624.897-5.412.966h-.034a.846.846 0 0 1-.851-.807.844.844 0 0 1 .818-.872c1.535-.06 2.921-.387 4.779-.846l-1.661-1.571a.832.832 0 0 1-.025-1.189.861.861 0 0 1 1.205-.024l2.437 2.305c.407-.097.837-.198 1.294-.3 3.708-.833 8.931.953 9.938 1.319a.412.412 0 0 1 .02-.023c2.768-3.14 4.775-6.445 6.221-9.462-2.272 1.22-5.983 2.792-8.344 1.63-1.569-.771-2.762-2.16-3.917-3.502-1.262-1.467-2.454-2.853-4.016-3.374a.837.837 0 0 1-.534-1.066.855.855 0 0 1 1.081-.526c2.009.67 3.412 2.302 4.769 3.88.493.572.974 1.131 1.469 1.63.357-1.092.953-3.157.973-4.843.027-2.4-1.189-5.8-1.201-5.834a.837.837 0 0 1 .517-1.073.855.855 0 0 1 1.089.51c.054.15 1.331 3.713 1.3 6.415-.027 2.373-1.005 5.235-1.278 5.99.166.107.335.203.509.289 2.127 1.045 7.013-1.637 8.557-2.66a.83.83 0 0 1 .183-.091c1.925-4.783 2.393-8.329 2.401-8.391l.003-.024c-1.175-7.605-3.526-11.007-4.079-11.72Zm-33.755 5.303a22.91 22.91 0 0 1-7.543-1.483c-2.867-1.094-4.903-1.357-6.049-.782-.638.32-1.075.942-1.337 1.902a42.44 42.44 0 0 0-.554 2.354c-.376 1.748-.7 3.258-1.837 4.88-.961 1.37-2.3 1.03-3.099.827-.346-.087-.738-.188-.872-.1-.055.035-.339.271-.535 1.448-.335 2.015.308 4.09.824 5.758.478 1.547.824 2.665.352 3.5-.145.257-.437.595-1.001.741-.981.254-1.809-.009-2.474-.22-.932-.296-1.155-.369-1.681.52-.447.757-.413 1.737-.376 2.775.056 1.598.126 3.56-1.768 4.97.62 1.105 2.873 4.875 6.291 7.828 3.598 3.107 8.373 5.482 9.531 6.038.029-.063.052-.127.068-.193.156-.612-.094-.978-.909-1.95-.498-.594-1.118-1.334-1.633-2.341-1.663-3.253-2.483-7.785.677-9.852 1.473-.963 3.194-1.113 4.712-1.247 1.833-.161 2.888-.297 3.264-1.231.625-1.552-.168-4.075-.748-5.917-.291-.926-.543-1.727-.597-2.321l-.021-.22c-.184-1.829-.564-5.632 5.248-13.184a46.4 46.4 0 0 1 2.067-2.5ZM1120.26 84.013c-3.81 0-7.55-.812-11.19-2.435a69.885 69.885 0 0 1-11.98-6.832 5.06 5.06 0 0 1-.47-.37l-4.04 3.2a.847.847 0 0 1-.97.062c-.14-.085-3.46-2.106-6.28-5.337-2.82-3.243-4.05-6.427-4.1-6.561a.812.812 0 0 1 .16-.853l2.48-2.764a.901.901 0 0 1 .2-.167c-1.27-2.432-2.97-6.957-3.59-14.408-.54-6.598.31-12.008 2.52-16.08.12-.219.3-.576.49-.96.32-.66.66-1.343.89-1.716.23-.367.48-.79.75-1.259 2.14-3.64 6.11-10.416 15.2-15.579 7.69-4.376 11.52-4.83 14.9-5.232 2.01-.239 3.75-.446 6.09-1.476 5.94-2.62 7.13-4.763 7.14-4.785a.87.87 0 0 1 1.25-.318c.62.424 3.73 2.65 3.76 4.8.02 1.042-.35 1.755-.62 2.275-.27.534-.26.547-.15.7.13.162.36.252.72.386.85.318 2.15.797 2.21 3.266.05 1.966-1 3.064-1.86 3.86 1.69.833 6.04 3.105 9.48 6.081 2.23 1.922 3.97 4.17 5.05 5.716.82 1.18 1.31 1.958 1.59 2.49 1.1-.585 1.85-.837 2.43-1.033.68-.23 1.05-.356 1.64-.894 1.96-1.79 5.16-.383 5.55-.12.22.15.36.384.39.643.05.481-.23.78-.74 1.32-.84.899-2.59 2.77-3.44 5.944-.75 2.845-.59 6.15-.45 9.067.08 1.841.17 3.58 0 4.955-.55 4.494-1.7 13.845-8.7 21.532-3.35 3.676-7.55 6.887-11.89 9.138-.08.057-.16.1-.25.128a35.34 35.34 0 0 1-3.23 1.453c-3.69 1.442-7.35 2.163-10.94 2.163Zm-4.68-2.153c6.37 1.176 12.57-.233 17.97-2.924.38-.752 1.46-3.267 1.38-7.07-.09-4.48-.88-5.896-.89-5.91a.84.84 0 0 1 .3-1.144c.4-.234.91-.12 1.15.266.11.166 1.04 1.764 1.15 6.753.05 2.475-.34 4.454-.77 5.847a41.041 41.041 0 0 0 9.43-7.669 28.343 28.343 0 0 0 3.35-4.504c-.31-.752-1.02-2.923-.63-6.57.44-4.246.6-6.562.6-6.585a.863.863 0 0 1 .91-.78c.47.031.83.432.8.895-.01.024-.17 2.364-.62 6.643-.19 1.87-.08 3.29.1 4.268 2.73-5.493 3.39-10.911 3.77-13.978.15-1.235.07-2.906-.02-4.674-.14-3.037-.3-6.479.52-9.571.87-3.306 2.6-5.332 3.6-6.41-.79-.204-1.91-.312-2.56.28-.86.78-1.5.999-2.25 1.252-.71.238-1.59.536-3.13 1.47-1.41.864-1.45 1.995-1.38 3.77.04 1.173.08 2.504-.61 3.68-1.22 2.056-2.7 1.583-3.68 1.273-.53-.169-.99-.316-1.47-.206-.04.363.27 1.38.5 2.137.54 1.738 1.28 4.118.88 6.52-.22 1.342-.63 2.163-1.29 2.583-.76.492-1.57.286-2.22.12-.86-.217-1.03-.198-1.28.155-.94 1.345-1.2 2.573-1.57 4.272-.15.717-.33 1.529-.57 2.442-.39 1.427-1.13 2.425-2.21 2.966-1.65.822-4.01.596-7.44-.713a21.145 21.145 0 0 0-7.22-1.374h-.03c-.74 0-1.41.34-2.15.873-4.92 4.65-10.34 7.273-15.68 7.511-1.03.046-2.11.008-3.21-.092-1.2.297-1.93 1.211-2.22 2.085-.37 1.087-.25 2.613 1.19 3.635 3.67 2.597 7.6 4.84 11.69 6.665 1.24.552 2.48.993 3.72 1.333.54-.405 3.06-2.374 5.38-5.772-.18-.4-1.23-2.826-1.35-4.974-.07-1.071-.1-2.449.08-2.928l1.59.591s.01-.019.03-.069c-.01.02-.11.495 0 2.308.06 1.128.45 2.397.77 3.287 2.59-4.427 2.97-6.005 2.98-6.021a.853.853 0 0 1 1.01-.64c.45.096.75.532.66.983-.04.183-.46 1.927-3.38 6.878-1.99 3.357-4.3 5.643-5.68 6.837Zm-32.56-16.255c.43.96 1.59 3.286 3.61 5.602 2.01 2.315 4.36 4.004 5.37 4.677l3.19-2.53c-1.17-.883-3.04-2.32-4.24-3.334-3.16-2.678-5.44-5.76-5.54-5.89a.617.617 0 0 1-.09-.167c-.1-.13-.22-.299-.37-.513l-1.93 2.155Zm5.67-.173c.9 1.004 2.06 2.204 3.37 3.313.8.679 1.94 1.573 2.95 2.35-.03-.618.05-1.252.26-1.88.25-.74.65-1.381 1.16-1.9-2.93-.484-5.76-1.264-7.74-1.883Zm-1.97-2.436c1.16.42 6.97 2.437 12.31 2.967.33-.06.67-.086 1.03-.08 1.64.029 3.22-.086 4.67-.348 5.35-.963 8.83-3.847 10.91-5.57.37-.305.7-.576.99-.802.09-.072.19-.143.28-.213 1.47-1.4 2.9-2.995 4.27-4.773 5.41-7.027 5.07-10.388 4.91-12.002l-.02-.235c-.04-.418-.28-1.174-.53-1.975-.66-2.08-1.55-4.931-.7-7.034.78-1.941 2.77-2.116 4.69-2.285 1.38-.12 2.81-.246 3.92-.974 2.39-1.559 1.19-5.57.1-7.694-.43-.84-.96-1.47-1.42-2.027-.8-.954-1.63-1.941-1.25-3.43.24-.95.91-1.564 1.55-2.158.82-.754 1.53-1.405 1.5-2.752-.04-1.335-.42-1.476-1.11-1.734-.47-.172-1.05-.387-1.48-.95-.76-1.001-.32-1.849-.01-2.468.23-.444.45-.863.44-1.49-.01-.786-1.25-2.062-2.36-2.947-.87 1-2.89 2.773-7.4 4.759-2.57 1.134-4.51 1.365-6.57 1.61-3.22.381-6.87.815-14.26 5.019-8.69 4.938-12.37 11.214-14.57 14.965-.29.482-.54.917-.78 1.294-.18.303-.53 1.007-.81 1.571-.2.41-.39.79-.51 1.022-1.91 3.506-2.72 8.142-2.42 13.794 1.28-4.235 3.88-10.532 9.04-16.384 8.65-9.81 25.45-15.164 26.16-15.387.45-.14.93.104 1.07.546a.845.845 0 0 1-.55 1.056c-.17.05-15.44 4.919-24.1 13.519 1.68.545 5.58 1.637 8.29 1.026 1.11-.251 2.08-.49 2.93-.7 2.1-.52 3.62-.897 5.41-.966h.03c.46 0 .84.354.85.807a.837.837 0 0 1-.81.872c-1.54.06-2.92.387-4.78.846l1.66 1.571c.34.322.35.854.02 1.188a.855.855 0 0 1-1.2.025l-2.44-2.305c-.41.097-.84.198-1.29.3-3.71.833-8.93-.953-9.94-1.319-.01.008-.01.016-.02.023-2.77 3.14-4.78 6.445-6.22 9.462 2.27-1.22 5.98-2.792 8.34-1.63 1.57.771 2.76 2.16 3.92 3.502 1.26 1.467 2.45 2.853 4.02 3.374a.84.84 0 0 1 .53 1.066.852.852 0 0 1-1.08.526c-2.01-.67-3.41-2.302-4.77-3.88-.49-.573-.97-1.131-1.47-1.63-.36 1.092-.95 3.157-.97 4.843-.03 2.4 1.19 5.8 1.2 5.834a.84.84 0 0 1-.52 1.073.858.858 0 0 1-1.09-.51c-.05-.15-1.33-3.713-1.3-6.415.03-2.373 1.01-5.236 1.28-5.99a5.01 5.01 0 0 0-.51-.29c-2.13-1.044-7.01 1.638-8.56 2.66a.728.728 0 0 1-.18.092c-1.92 4.783-2.39 8.329-2.4 8.391v.024c1.17 7.605 3.52 11.007 4.08 11.72Zm33.75-5.303c1.84.044 4.57.348 7.54 1.483 2.87 1.094 4.91 1.357 6.05.782.64-.32 1.08-.942 1.34-1.902.24-.87.4-1.625.55-2.354.38-1.748.7-3.258 1.84-4.88.96-1.37 2.3-1.03 3.1-.827.35.087.74.187.87.1.06-.035.34-.271.54-1.448.33-2.015-.31-4.09-.83-5.758-.48-1.547-.82-2.665-.35-3.5.15-.257.44-.595 1-.741.98-.254 1.81.009 2.48.22.93.296 1.15.368 1.68-.52.44-.757.41-1.737.37-2.775-.05-1.598-.12-3.561 1.77-4.97-.62-1.105-2.87-4.875-6.29-7.828-3.6-3.107-8.37-5.482-9.53-6.038a1.37 1.37 0 0 0-.07.193c-.15.612.1.978.91 1.95.5.594 1.12 1.334 1.63 2.341 1.67 3.253 2.49 7.785-.67 9.852-1.48.963-3.2 1.113-4.72 1.247-1.83.16-2.88.297-3.26 1.23-.62 1.553.17 4.076.75 5.918.29.926.54 1.727.6 2.321l.02.22c.18 1.829.56 5.632-5.25 13.184-.68.876-1.37 1.71-2.07 2.5ZM324.814 98.5c.001 3.751-.824 7.432-2.472 11.016a68.493 68.493 0 0 1-6.94 11.799 5.266 5.266 0 0 1-.376.458l3.25 3.976a.826.826 0 0 1 .063.964c-.086.137-2.138 3.407-5.421 6.174-3.293 2.778-6.527 3.995-6.663 4.045a.865.865 0 0 1-.867-.156l-2.807-2.443a.84.84 0 0 1-.169-.201c-2.47 1.249-7.066 2.926-14.634 3.53-6.702.535-12.197-.299-16.334-2.48-.221-.117-.583-.289-.975-.476-.67-.32-1.363-.65-1.741-.878a66.553 66.553 0 0 0-1.279-.74c-3.698-2.103-10.579-6.017-15.824-14.96-4.444-7.579-4.906-11.351-5.314-14.678-.242-1.979-.452-3.688-1.499-5.988-2.661-5.853-4.838-7.022-4.86-7.033a.861.861 0 0 1-.441-.547.83.83 0 0 1 .118-.682c.431-.613 2.691-3.674 4.875-3.707 1.059-.017 1.783.345 2.311.609.543.27.556.26.71.147.166-.123.257-.346.393-.7.323-.846.81-2.122 3.317-2.181 1.997-.048 3.112.989 3.921 1.833.846-1.668 3.153-5.945 6.176-9.338 1.953-2.192 4.236-3.91 5.806-4.967 1.198-.805 1.989-1.29 2.53-1.568-.596-1.081-.851-1.816-1.05-2.387-.233-.67-.362-1.04-.909-1.62-1.818-1.928-.389-5.08-.121-5.461a.917.917 0 0 1 .653-.383c.489-.054.791.221 1.34.72.914.83 2.814 2.558 6.038 3.387 2.889.744 6.247.588 9.209.452 1.87-.087 3.636-.168 5.033-.002 4.564.541 14.062 1.669 21.869 8.562 3.734 3.296 6.996 7.432 9.282 11.711a.84.84 0 0 1 .13.245 35.265 35.265 0 0 1 1.476 3.18c1.465 3.635 2.196 7.233 2.196 10.768Zm-2.186 4.608c1.194-6.27-.237-12.375-2.97-17.696-.764-.369-3.318-1.436-7.18-1.356-4.552.093-5.989.869-6.003.877a.87.87 0 0 1-1.162-.295.823.823 0 0 1 .27-1.136c.168-.104 1.792-1.02 6.859-1.125 2.514-.051 4.523.336 5.938.756-2.194-3.611-4.95-6.781-7.789-9.288a28.713 28.713 0 0 0-4.575-3.294c-.763.307-2.969.998-6.673.623-4.313-.437-6.665-.598-6.688-.6a.851.851 0 0 1-.793-.894.848.848 0 0 1 .91-.78c.024.002 2.4.164 6.747.604 1.899.192 3.341.077 4.334-.1-5.579-2.682-11.082-3.335-14.196-3.705-1.255-.148-2.952-.07-4.748.013-3.085.142-6.58.304-9.721-.505-3.358-.863-5.416-2.565-6.511-3.548-.207.782-.316 1.884.285 2.521.793.842 1.015 1.479 1.271 2.217.243.698.545 1.566 1.494 3.076.877 1.394 2.026 1.427 3.828 1.366 1.192-.041 2.544-.087 3.738.598 2.089 1.197 1.609 2.655 1.293 3.62-.171.522-.321.976-.209 1.449.369.044 1.402-.266 2.171-.496 1.765-.53 4.182-1.254 6.622-.862 1.363.22 2.197.622 2.624 1.266.499.751.291 1.551.122 2.194-.221.844-.201 1.009.157 1.251 1.366.93 2.613 1.188 4.339 1.548.728.151 1.553.323 2.48.567 1.449.382 2.463 1.114 3.013 2.177.835 1.616.605 3.943-.724 7.32a20.236 20.236 0 0 0-1.396 7.113v.026c0 .73.346 1.388.887 2.112 4.722 4.845 7.387 10.18 7.629 15.438a22.977 22.977 0 0 1-.094 3.169c.302 1.182 1.23 1.894 2.117 2.184 1.105.361 2.655.242 3.692-1.178a66.834 66.834 0 0 0 6.771-11.511 25.251 25.251 0 0 0 1.353-3.653c-.412-.536-2.412-3.015-5.862-5.302-.407.176-2.871 1.209-5.052 1.334-1.088.062-2.488.098-2.975-.081l.601-1.571s-.019-.01-.07-.023c.019.005.502.105 2.344 0 1.146-.066 2.435-.445 3.339-.762-4.497-2.55-6.1-2.926-6.116-2.93a.844.844 0 0 1-.65-.995.849.849 0 0 1 .999-.647c.185.037 1.957.444 6.985 3.327 3.41 1.955 5.732 4.228 6.945 5.587Zm-16.511 32.061a24.292 24.292 0 0 0 5.691-3.556c2.351-1.983 4.066-4.298 4.749-5.288l-2.568-3.141c-.898 1.15-2.358 2.996-3.387 4.174-2.72 3.114-5.85 5.357-5.983 5.451a.865.865 0 0 1-.17.095c-.13.097-.303.219-.52.36l2.188 1.905Zm-.175-5.584a34.757 34.757 0 0 0 3.365-3.32 89.089 89.089 0 0 0 2.386-2.906 5.157 5.157 0 0 1-1.908-.254 5.03 5.03 0 0 1-1.93-1.145c-.492 2.891-1.284 5.67-1.913 7.625Zm-2.474 1.942c.427-1.149 2.475-6.862 3.014-12.119a5.076 5.076 0 0 1-.082-1.016c.029-1.621-.088-3.171-.353-4.604-.978-5.262-3.908-8.691-5.658-10.74-.309-.36-.585-.684-.815-.973a33.217 33.217 0 0 1-.216-.276 41.854 41.854 0 0 0-4.847-4.203c-7.138-5.325-10.551-4.994-12.191-4.835l-.238.023c-.425.037-1.193.271-2.006.52-2.114.644-5.009 1.526-7.145.693-1.971-.77-2.149-2.73-2.32-4.625-.123-1.359-.251-2.765-.99-3.86-1.583-2.348-5.657-1.165-7.814-.096-.853.423-1.494.943-2.06 1.403-.969.787-1.971 1.601-3.482 1.229-.966-.238-1.59-.896-2.193-1.532-.766-.806-1.427-1.503-2.795-1.47-1.356.031-1.499.409-1.761 1.093-.175.458-.393 1.029-.965 1.451-1.017.752-1.878.322-2.507.009-.451-.225-.877-.437-1.513-.428-.799.012-2.095 1.228-2.994 2.323 1.016.853 2.817 2.846 4.834 7.282 1.151 2.532 1.386 4.446 1.634 6.473.389 3.168.829 6.758 5.099 14.041 5.016 8.554 11.39 12.179 15.199 14.345.49.279.932.531 1.316.761.307.185 1.021.526 1.595.799.416.199.801.383 1.037.507 3.562 1.878 8.27 2.676 14.011 2.377-4.301-1.256-10.697-3.822-16.641-8.9-9.964-8.513-15.401-25.052-15.628-25.751a.838.838 0 0 1 .555-1.055.857.857 0 0 1 1.072.545c.051.159 4.996 15.193 13.731 23.722.553-1.653 1.662-5.491 1.042-8.16a130.357 130.357 0 0 0-.711-2.883c-.529-2.071-.911-3.567-.981-5.329l-.001-.033c0-.448.361-.82.82-.838a.848.848 0 0 1 .886.806c.06 1.511.393 2.876.86 4.705l1.596-1.635a.863.863 0 0 1 1.206-.025.83.83 0 0 1 .025 1.187l-2.341 2.399c.099.4.201.824.305 1.274.846 3.651-.968 8.793-1.34 9.784l.024.02c3.189 2.725 6.546 4.701 9.609 6.125-1.238-2.237-2.835-5.89-1.655-8.215.784-1.544 2.193-2.719 3.557-3.856 1.49-1.243 2.898-2.417 3.427-3.954a.857.857 0 0 1 1.082-.526.835.835 0 0 1 .535 1.064c-.681 1.978-2.338 3.36-3.94 4.696-.582.485-1.15.958-1.656 1.445 1.109.352 3.206.939 4.919.958 2.438.027 5.891-1.17 5.925-1.182a.858.858 0 0 1 1.09.509.834.834 0 0 1-.517 1.072c-.153.054-3.772 1.31-6.517 1.28-2.41-.026-5.317-.989-6.085-1.258-.107.163-.205.33-.292.501-1.062 2.094 1.662 6.904 2.701 8.425.039.057.07.118.093.18 4.858 1.895 8.459 2.356 8.523 2.364l.024.003c7.724-1.157 11.18-3.471 11.904-4.016Zm-5.386-33.234a21.953 21.953 0 0 1 1.506-7.427c1.111-2.822 1.378-4.826.794-5.954-.325-.63-.957-1.06-1.932-1.317a44.663 44.663 0 0 0-2.391-.546c-1.775-.37-3.308-.689-4.956-1.809-1.392-.945-1.047-2.263-.84-3.05.089-.341.19-.727.101-.86-.035-.053-.275-.333-1.47-.526-2.047-.33-4.155.303-5.849.811-1.571.472-2.707.812-3.554.348a1.537 1.537 0 0 1-.753-.986c-.258-.966.009-1.781.224-2.437.3-.917.374-1.136-.529-1.654-.768-.44-1.764-.407-2.819-.37-1.623.055-3.616.123-5.046-1.74-1.124.61-4.952 2.828-7.952 6.193-3.156 3.542-5.568 8.243-6.133 9.384.064.028.13.05.196.067.622.153.993-.093 1.981-.895.603-.49 1.354-1.1 2.378-1.608 3.304-1.637 7.907-2.445 10.006.666.978 1.451 1.131 3.145 1.267 4.64.163 1.805.302 2.843 1.25 3.213 1.576.616 4.139-.166 6.01-.736.941-.287 1.754-.535 2.357-.588l.224-.021c1.857-.18 5.72-.555 13.391 5.167a47.056 47.056 0 0 1 2.539 2.035ZM563.548 98.5c.001 3.751-.824 7.432-2.473 11.016a68.552 68.552 0 0 1-6.939 11.799 5.1 5.1 0 0 1-.377.458l3.251 3.976a.828.828 0 0 1 .063.964c-.086.137-2.138 3.407-5.421 6.174-3.293 2.778-6.528 3.995-6.663 4.045a.865.865 0 0 1-.867-.156l-2.807-2.443a.84.84 0 0 1-.169-.201c-2.47 1.249-7.067 2.926-14.634 3.53-6.702.535-12.197-.299-16.334-2.48-.221-.117-.583-.289-.975-.476-.67-.32-1.363-.65-1.742-.878a66.242 66.242 0 0 0-1.278-.74c-3.698-2.103-10.58-6.017-15.824-14.96-4.444-7.579-4.906-11.351-5.314-14.678-.243-1.979-.452-3.688-1.499-5.988-2.661-5.853-4.838-7.022-4.86-7.033a.861.861 0 0 1-.441-.547.83.83 0 0 1 .118-.682c.431-.613 2.691-3.674 4.875-3.707 1.058-.017 1.783.345 2.311.609.543.27.555.26.71.147.166-.123.257-.346.392-.7.323-.846.811-2.122 3.318-2.181 1.997-.048 3.112.989 3.921 1.833.846-1.668 3.153-5.945 6.176-9.338 1.953-2.192 4.236-3.91 5.806-4.967 1.198-.805 1.988-1.29 2.529-1.568-.595-1.081-.85-1.816-1.049-2.387-.233-.67-.362-1.04-.909-1.62-1.818-1.928-.389-5.08-.121-5.461a.917.917 0 0 1 .653-.383c.489-.054.791.221 1.34.72.913.83 2.814 2.558 6.038 3.387 2.889.744 6.247.588 9.209.452 1.87-.087 3.636-.168 5.032-.002 4.565.541 14.063 1.669 21.87 8.562 3.734 3.296 6.995 7.432 9.282 11.711.057.075.1.158.13.245a35.265 35.265 0 0 1 1.476 3.18c1.464 3.635 2.196 7.233 2.196 10.768Zm-2.186 4.608c1.194-6.27-.237-12.375-2.971-17.696-.763-.369-3.317-1.436-7.179-1.356-4.552.093-5.989.869-6.003.877a.87.87 0 0 1-1.162-.295.823.823 0 0 1 .27-1.136c.168-.104 1.791-1.02 6.859-1.125 2.513-.051 4.523.336 5.938.756-2.194-3.611-4.95-6.781-7.789-9.288a28.758 28.758 0 0 0-4.575-3.294c-.764.307-2.969.998-6.673.623-4.313-.437-6.665-.598-6.688-.6a.851.851 0 0 1-.793-.894.848.848 0 0 1 .91-.78c.024.002 2.4.164 6.747.604 1.899.192 3.341.077 4.334-.1-5.579-2.682-11.082-3.335-14.197-3.705-1.254-.148-2.951-.07-4.747.013-3.085.142-6.581.304-9.721-.505-3.358-.863-5.416-2.565-6.511-3.548-.207.782-.317 1.884.285 2.521.793.842 1.014 1.479 1.271 2.217.243.698.545 1.566 1.494 3.076.877 1.394 2.025 1.427 3.828 1.366 1.192-.041 2.543-.087 3.738.598 2.089 1.197 1.609 2.655 1.293 3.62-.171.522-.321.976-.209 1.449.369.044 1.402-.266 2.17-.496 1.766-.53 4.183-1.254 6.623-.862 1.363.22 2.197.622 2.624 1.266.499.751.29 1.551.121 2.194-.221.844-.201 1.009.157 1.251 1.367.93 2.614 1.188 4.34 1.548.728.151 1.553.323 2.48.567 1.449.382 2.463 1.114 3.012 2.177.836 1.616.606 3.943-.723 7.32a20.264 20.264 0 0 0-1.397 7.113v.026c0 .73.347 1.388.888 2.112 4.722 4.845 7.386 10.18 7.628 15.438a22.818 22.818 0 0 1-.093 3.169c.302 1.182 1.23 1.894 2.117 2.184 1.105.361 2.654.242 3.692-1.178a66.829 66.829 0 0 0 6.77-11.511 25.141 25.141 0 0 0 1.354-3.653c-.412-.536-2.412-3.015-5.862-5.302-.407.176-2.871 1.209-5.052 1.334-1.089.062-2.488.098-2.975-.081l.601-1.571s-.019-.01-.07-.023c.019.005.502.105 2.344 0 1.145-.066 2.435-.445 3.339-.762-4.497-2.55-6.1-2.926-6.116-2.93a.843.843 0 0 1-.65-.995.849.849 0 0 1 .999-.647c.185.037 1.957.444 6.985 3.327 3.41 1.955 5.732 4.228 6.945 5.587Zm-16.511 32.061a24.292 24.292 0 0 0 5.691-3.556c2.351-1.983 4.066-4.298 4.749-5.288l-2.568-3.141c-.898 1.15-2.358 2.996-3.387 4.174-2.72 3.114-5.851 5.357-5.983 5.451a.865.865 0 0 1-.17.095c-.13.097-.303.219-.52.36l2.188 1.905Zm-.175-5.584a34.757 34.757 0 0 0 3.365-3.32 89.089 89.089 0 0 0 2.386-2.906 5.157 5.157 0 0 1-1.908-.254 5.014 5.014 0 0 1-1.93-1.145c-.493 2.891-1.284 5.67-1.913 7.625Zm-2.475 1.942c.428-1.149 2.476-6.862 3.015-12.119a5.076 5.076 0 0 1-.083-1.016c.03-1.621-.087-3.171-.352-4.604-.979-5.262-3.908-8.691-5.658-10.74-.309-.36-.585-.684-.815-.973-.072-.091-.145-.183-.216-.276a41.854 41.854 0 0 0-4.847-4.203c-7.138-5.325-10.551-4.994-12.191-4.835l-.239.023c-.424.037-1.192.271-2.005.52-2.114.644-5.009 1.526-7.145.693-1.971-.77-2.149-2.73-2.32-4.625-.123-1.359-.251-2.765-.99-3.86-1.583-2.348-5.657-1.165-7.814-.096-.853.423-1.494.943-2.06 1.403-.969.787-1.971 1.601-3.483 1.229-.965-.238-1.589-.896-2.192-1.532-.766-.806-1.427-1.503-2.795-1.47-1.356.031-1.5.409-1.761 1.093-.175.458-.393 1.029-.965 1.451-1.017.752-1.878.322-2.507.009-.451-.225-.877-.437-1.513-.428-.799.012-2.095 1.228-2.994 2.323 1.016.853 2.817 2.846 4.834 7.282 1.151 2.532 1.386 4.446 1.634 6.473.389 3.168.829 6.758 5.099 14.041 5.016 8.554 11.39 12.179 15.199 14.345.49.279.932.531 1.315.761.308.185 1.022.526 1.596.799.416.199.801.383 1.037.507 3.562 1.878 8.27 2.676 14.011 2.377-4.301-1.256-10.697-3.822-16.641-8.9-9.964-8.513-15.401-25.052-15.628-25.751a.838.838 0 0 1 .555-1.055.857.857 0 0 1 1.072.545c.051.159 4.996 15.193 13.731 23.722.553-1.653 1.662-5.491 1.041-8.16a125.392 125.392 0 0 0-.71-2.883c-.529-2.071-.911-3.567-.981-5.329l-.001-.033c0-.448.361-.82.82-.838a.848.848 0 0 1 .886.806c.06 1.511.393 2.876.86 4.705l1.595-1.635a.864.864 0 0 1 1.207-.025.83.83 0 0 1 .025 1.187l-2.341 2.399c.099.4.201.824.305 1.274.846 3.651-.969 8.793-1.34 9.784l.024.02c3.189 2.725 6.546 4.701 9.609 6.125-1.238-2.237-2.835-5.89-1.655-8.215.783-1.544 2.193-2.719 3.557-3.856 1.49-1.243 2.898-2.417 3.427-3.954a.856.856 0 0 1 1.082-.526.835.835 0 0 1 .535 1.064c-.681 1.978-2.338 3.36-3.94 4.696-.582.485-1.15.958-1.656 1.445 1.109.352 3.206.939 4.919.958 2.438.027 5.89-1.17 5.925-1.182a.858.858 0 0 1 1.09.509.834.834 0 0 1-.517 1.072c-.153.054-3.772 1.31-6.517 1.28-2.41-.026-5.317-.989-6.085-1.258a5.06 5.06 0 0 0-.292.501c-1.062 2.094 1.662 6.904 2.701 8.425.039.057.07.118.093.18 4.857 1.895 8.459 2.356 8.523 2.364l.023.003c7.725-1.157 11.181-3.471 11.904-4.016Zm-5.385-33.234a21.953 21.953 0 0 1 1.506-7.427c1.111-2.822 1.378-4.826.794-5.954-.325-.63-.957-1.06-1.932-1.317a44.663 44.663 0 0 0-2.391-.546c-1.775-.37-3.308-.689-4.956-1.809-1.392-.945-1.047-2.263-.84-3.05.089-.341.19-.727.101-.86-.035-.053-.275-.333-1.47-.526-2.047-.33-4.155.303-5.849.811-1.571.472-2.707.812-3.555.348a1.539 1.539 0 0 1-.752-.986c-.258-.966.009-1.781.224-2.437.3-.917.374-1.136-.529-1.654-.768-.44-1.764-.407-2.819-.37-1.623.055-3.616.123-5.047-1.74-1.123.61-4.952 2.828-7.951 6.193-3.156 3.542-5.569 8.243-6.133 9.384.064.028.13.05.196.067.622.153.993-.093 1.981-.895.603-.49 1.354-1.1 2.378-1.608 3.304-1.637 7.907-2.445 10.006.666.978 1.451 1.131 3.145 1.267 4.64.163 1.805.302 2.843 1.25 3.213 1.576.616 4.138-.166 6.01-.736.941-.287 1.753-.535 2.357-.588l.224-.021c1.857-.18 5.72-.555 13.391 5.167a47.056 47.056 0 0 1 2.539 2.035ZM802.282 98.5c.001 3.751-.824 7.432-2.473 11.016a68.552 68.552 0 0 1-6.939 11.799 5.1 5.1 0 0 1-.377.458l3.251 3.976a.828.828 0 0 1 .063.964c-.086.137-2.138 3.407-5.421 6.174-3.293 2.778-6.528 3.995-6.663 4.045a.865.865 0 0 1-.867-.156l-2.807-2.443a.84.84 0 0 1-.169-.201c-2.471 1.249-7.067 2.926-14.634 3.53-6.702.535-12.197-.299-16.334-2.48-.221-.117-.583-.289-.975-.476-.67-.32-1.363-.65-1.742-.878a66.242 66.242 0 0 0-1.278-.74c-3.698-2.103-10.58-6.017-15.824-14.96-4.444-7.579-4.906-11.351-5.314-14.678-.243-1.979-.453-3.688-1.499-5.988-2.661-5.853-4.838-7.022-4.86-7.033a.861.861 0 0 1-.441-.547.83.83 0 0 1 .118-.682c.431-.613 2.691-3.674 4.875-3.707 1.058-.017 1.783.345 2.311.609.543.27.555.26.71.147.166-.123.257-.346.392-.7.323-.846.811-2.122 3.318-2.181 1.997-.048 3.112.989 3.921 1.833.845-1.668 3.153-5.945 6.176-9.338 1.953-2.192 4.236-3.91 5.806-4.967 1.198-.805 1.988-1.29 2.529-1.568-.595-1.081-.85-1.816-1.049-2.387-.233-.67-.362-1.04-.909-1.62-1.818-1.928-.389-5.08-.121-5.461a.917.917 0 0 1 .652-.383c.489-.054.792.221 1.341.72.913.83 2.814 2.558 6.038 3.387 2.889.744 6.247.588 9.209.452 1.87-.087 3.636-.168 5.032-.002 4.564.541 14.063 1.669 21.87 8.562 3.734 3.296 6.995 7.432 9.282 11.711.057.075.1.158.13.245a34.98 34.98 0 0 1 1.475 3.18c1.465 3.635 2.197 7.233 2.197 10.768Zm-2.186 4.608c1.194-6.27-.237-12.375-2.971-17.696-.763-.369-3.317-1.436-7.18-1.356-4.551.093-5.988.869-6.002.877a.87.87 0 0 1-1.162-.295.823.823 0 0 1 .27-1.136c.168-.104 1.791-1.02 6.859-1.125 2.513-.051 4.523.336 5.938.756-2.194-3.611-4.95-6.781-7.789-9.288a28.758 28.758 0 0 0-4.575-3.294c-.764.307-2.969.998-6.673.623-4.313-.437-6.665-.598-6.688-.6a.851.851 0 0 1-.793-.894.848.848 0 0 1 .91-.78c.024.002 2.4.164 6.747.604 1.899.192 3.341.077 4.334-.1-5.579-2.682-11.082-3.335-14.197-3.705-1.254-.148-2.951-.07-4.747.013-3.085.142-6.581.304-9.721-.505-3.358-.863-5.416-2.565-6.511-3.548-.207.782-.317 1.884.285 2.521.792.842 1.014 1.479 1.271 2.217.243.698.545 1.566 1.494 3.076.877 1.394 2.025 1.427 3.828 1.366 1.192-.041 2.543-.087 3.738.598 2.089 1.197 1.608 2.655 1.293 3.62-.171.522-.321.976-.209 1.449.369.044 1.402-.266 2.17-.496 1.766-.53 4.183-1.254 6.623-.862 1.363.22 2.197.622 2.624 1.266.499.751.29 1.551.121 2.194-.221.844-.201 1.009.157 1.251 1.367.93 2.614 1.188 4.34 1.548.728.151 1.552.323 2.48.567 1.449.382 2.463 1.114 3.012 2.177.836 1.616.606 3.943-.723 7.32a20.264 20.264 0 0 0-1.397 7.113v.026c0 .73.347 1.388.888 2.112 4.722 4.845 7.386 10.18 7.628 15.438a22.973 22.973 0 0 1-.093 3.169c.302 1.182 1.23 1.894 2.117 2.184 1.105.361 2.654.242 3.692-1.178a66.829 66.829 0 0 0 6.77-11.511 25.141 25.141 0 0 0 1.354-3.653c-.412-.536-2.412-3.015-5.862-5.302-.407.176-2.871 1.209-5.053 1.334-1.088.062-2.487.098-2.974-.081l.601-1.571s-.019-.01-.07-.023c.019.005.502.105 2.344 0 1.145-.066 2.434-.445 3.339-.762-4.497-2.55-6.1-2.926-6.116-2.93a.843.843 0 0 1-.65-.995.849.849 0 0 1 .999-.647c.185.037 1.957.444 6.985 3.327 3.41 1.955 5.732 4.228 6.945 5.587Zm-16.511 32.061a24.292 24.292 0 0 0 5.691-3.556c2.351-1.983 4.066-4.298 4.749-5.288l-2.568-3.141c-.898 1.15-2.358 2.996-3.387 4.174-2.72 3.114-5.851 5.357-5.983 5.451a.865.865 0 0 1-.17.095c-.13.097-.303.219-.52.36l2.188 1.905Zm-.175-5.584a34.757 34.757 0 0 0 3.365-3.32 89.089 89.089 0 0 0 2.386-2.906 5.165 5.165 0 0 1-1.909-.254 5.018 5.018 0 0 1-1.929-1.145c-.493 2.891-1.285 5.67-1.913 7.625Zm-2.475 1.942c.428-1.149 2.476-6.862 3.015-12.119a5.076 5.076 0 0 1-.083-1.016c.03-1.621-.087-3.171-.353-4.604-.978-5.262-3.907-8.691-5.657-10.74-.309-.36-.585-.684-.815-.973-.072-.091-.145-.183-.216-.276a41.937 41.937 0 0 0-4.847-4.203c-7.138-5.325-10.551-4.994-12.191-4.835l-.239.023c-.424.037-1.192.271-2.005.52-2.114.644-5.009 1.526-7.145.693-1.971-.77-2.149-2.73-2.321-4.625-.122-1.359-.25-2.765-.989-3.86-1.583-2.348-5.657-1.165-7.815-.096-.852.423-1.493.943-2.059 1.403-.969.787-1.971 1.601-3.483 1.229-.965-.238-1.589-.896-2.193-1.532-.765-.806-1.426-1.503-2.794-1.47-1.356.031-1.5.409-1.761 1.093-.175.458-.393 1.029-.965 1.451-1.017.752-1.878.322-2.507.009-.451-.225-.877-.437-1.513-.428-.799.012-2.095 1.228-2.994 2.323 1.016.853 2.817 2.846 4.834 7.282 1.151 2.532 1.386 4.446 1.634 6.473.389 3.168.829 6.758 5.099 14.041 5.016 8.554 11.39 12.179 15.199 14.345.49.279.932.531 1.315.761.308.185 1.022.526 1.596.799.416.199.801.383 1.037.507 3.562 1.878 8.27 2.676 14.011 2.377-4.301-1.256-10.697-3.822-16.641-8.9-9.964-8.513-15.401-25.052-15.628-25.751a.838.838 0 0 1 .555-1.055.857.857 0 0 1 1.072.545c.051.159 4.996 15.193 13.731 23.722.553-1.653 1.662-5.491 1.041-8.16a125.392 125.392 0 0 0-.71-2.883c-.529-2.071-.912-3.567-.981-5.329l-.001-.033c0-.448.361-.82.82-.838a.848.848 0 0 1 .886.806c.06 1.511.393 2.876.859 4.705l1.596-1.635a.864.864 0 0 1 1.207-.025.83.83 0 0 1 .025 1.187l-2.341 2.399c.098.4.201.824.305 1.274.846 3.651-.969 8.793-1.34 9.784a.424.424 0 0 0 .024.02c3.189 2.725 6.546 4.701 9.609 6.125-1.238-2.237-2.835-5.89-1.655-8.215.783-1.544 2.193-2.719 3.557-3.856 1.49-1.243 2.898-2.417 3.427-3.954a.856.856 0 0 1 1.082-.526.836.836 0 0 1 .535 1.064c-.681 1.978-2.338 3.36-3.94 4.696-.583.485-1.15.958-1.656 1.445 1.109.352 3.206.939 4.919.958 2.438.027 5.89-1.17 5.925-1.182a.858.858 0 0 1 1.09.509.834.834 0 0 1-.517 1.072c-.153.054-3.772 1.31-6.517 1.28-2.41-.026-5.317-.989-6.085-1.258a5.06 5.06 0 0 0-.292.501c-1.062 2.094 1.662 6.904 2.701 8.425.039.057.07.118.093.18 4.857 1.895 8.459 2.356 8.522 2.364l.024.003c7.725-1.157 11.181-3.471 11.904-4.016Zm-5.385-33.234a21.953 21.953 0 0 1 1.506-7.427c1.111-2.822 1.378-4.826.794-5.954-.325-.63-.957-1.06-1.932-1.317a44.663 44.663 0 0 0-2.391-.546c-1.775-.37-3.309-.689-4.956-1.809-1.392-.945-1.047-2.263-.84-3.05.089-.341.19-.727.101-.86-.036-.053-.275-.333-1.47-.526-2.047-.33-4.155.303-5.849.811-1.571.472-2.707.812-3.555.348a1.539 1.539 0 0 1-.752-.986c-.259-.966.009-1.781.224-2.437.3-.917.373-1.136-.529-1.654-.769-.44-1.764-.407-2.819-.37-1.623.055-3.616.123-5.047-1.74-1.123.61-4.952 2.828-7.951 6.193-3.156 3.542-5.569 8.243-6.133 9.384.064.028.13.05.196.067.622.153.993-.093 1.98-.895.604-.49 1.355-1.1 2.379-1.608 3.304-1.637 7.907-2.445 10.006.666.978 1.451 1.131 3.145 1.266 4.64.164 1.805.303 2.843 1.251 3.213 1.576.616 4.138-.166 6.01-.736.94-.287 1.753-.535 2.357-.588l.224-.021c1.857-.18 5.72-.555 13.39 5.167.89.665 1.737 1.344 2.54 2.035ZM1041.02 98.5c0 3.751-.83 7.432-2.48 11.016a68.046 68.046 0 0 1-6.94 11.799c-.11.162-.24.314-.37.458l3.25 3.976c.22.276.25.662.06.964-.09.137-2.14 3.407-5.42 6.174-3.29 2.778-6.53 3.995-6.66 4.045a.87.87 0 0 1-.87-.156l-2.81-2.443a.98.98 0 0 1-.17-.201c-2.47 1.249-7.06 2.926-14.63 3.53-6.702.535-12.197-.299-16.334-2.48-.221-.117-.584-.289-.975-.476-.67-.32-1.363-.65-1.742-.878a63.626 63.626 0 0 0-1.279-.74c-3.697-2.103-10.579-6.017-15.823-14.96-4.444-7.579-4.906-11.351-5.314-14.678-.243-1.979-.453-3.688-1.499-5.988-2.661-5.853-4.838-7.022-4.86-7.033a.858.858 0 0 1-.441-.547.83.83 0 0 1 .118-.682c.431-.613 2.691-3.674 4.875-3.707 1.058-.017 1.783.345 2.311.609.542.27.555.26.71.147.166-.123.257-.346.392-.7.323-.846.811-2.122 3.318-2.181 1.997-.048 3.112.989 3.921 1.833.845-1.668 3.153-5.945 6.176-9.338 1.952-2.192 4.235-3.91 5.806-4.967 1.198-.805 1.988-1.29 2.529-1.568a13.877 13.877 0 0 1-1.049-2.387c-.233-.67-.362-1.04-.909-1.62-1.818-1.928-.389-5.08-.121-5.461a.917.917 0 0 1 .652-.383c.489-.054.792.221 1.341.72.913.83 2.813 2.558 6.038 3.387 2.889.744 6.247.588 9.209.452 1.87-.087 3.64-.168 5.03-.002 4.57.541 14.06 1.669 21.87 8.562 3.74 3.296 7 7.432 9.28 11.711.06.075.1.158.13.245a34.246 34.246 0 0 1 1.48 3.18c1.46 3.635 2.2 7.233 2.2 10.768Zm-2.19 4.608c1.19-6.27-.24-12.375-2.97-17.696-.76-.369-3.32-1.436-7.18-1.356-4.55.093-5.99.869-6 .877a.878.878 0 0 1-1.17-.295.833.833 0 0 1 .27-1.136c.17-.104 1.8-1.02 6.86-1.125 2.52-.051 4.53.336 5.94.756-2.19-3.611-4.95-6.781-7.79-9.288a28.499 28.499 0 0 0-4.57-3.294c-.77.307-2.97.998-6.67.623-4.32-.437-6.67-.598-6.69-.6a.862.862 0 0 1-.8-.894.853.853 0 0 1 .91-.78c.03.002 2.4.164 6.75.604 1.9.192 3.34.077 4.33-.1-5.57-2.682-11.08-3.335-14.19-3.705-1.26-.148-2.95-.07-4.75.013-3.084.142-6.58.304-9.72-.505-3.358-.863-5.416-2.565-6.511-3.548-.207.782-.317 1.884.284 2.521.793.842 1.015 1.479 1.272 2.217.242.698.545 1.566 1.494 3.076.876 1.394 2.025 1.427 3.828 1.366 1.192-.041 2.543-.087 3.738.598 2.088 1.197 1.608 2.655 1.293 3.62-.172.522-.321.976-.209 1.449.369.044 1.402-.266 2.17-.496 1.761-.53 4.181-1.254 6.621-.862 1.36.22 2.2.622 2.63 1.266.49.751.29 1.551.12 2.194-.22.844-.2 1.009.15 1.251 1.37.93 2.62 1.188 4.34 1.548.73.151 1.56.323 2.48.567 1.45.382 2.47 1.114 3.02 2.177.83 1.616.6 3.943-.73 7.32a20.023 20.023 0 0 0-1.39 7.113v.026c0 .73.34 1.388.88 2.112 4.73 4.845 7.39 10.18 7.63 15.438.05 1.016.01 2.086-.09 3.169.3 1.182 1.23 1.894 2.12 2.184 1.1.361 2.65.242 3.69-1.178a67.087 67.087 0 0 0 6.77-11.511 24.656 24.656 0 0 0 1.35-3.653c-.41-.536-2.41-3.015-5.86-5.302-.41.176-2.87 1.209-5.05 1.334-1.09.062-2.49.098-2.98-.081l.6-1.571s-.02-.01-.07-.023c.02.005.51.105 2.35 0 1.14-.066 2.43-.445 3.34-.762-4.5-2.55-6.1-2.926-6.12-2.93-.45-.1-.75-.546-.65-.995a.85.85 0 0 1 1-.647c.19.037 1.96.444 6.98 3.327 3.41 1.955 5.74 4.228 6.95 5.587Zm-16.51 32.061c.97-.427 3.34-1.572 5.69-3.556 2.35-1.983 4.07-4.298 4.75-5.288l-2.57-3.141c-.9 1.15-2.36 2.996-3.39 4.174-2.72 3.114-5.85 5.357-5.98 5.451a.742.742 0 0 1-.17.095c-.13.097-.3.219-.52.36l2.19 1.905Zm-.18-5.584a35.225 35.225 0 0 0 3.37-3.32 77.91 77.91 0 0 0 2.38-2.906 5.115 5.115 0 0 1-1.9-.254 4.985 4.985 0 0 1-1.93-1.145c-.5 2.891-1.29 5.67-1.92 7.625Zm-2.47 1.942c.43-1.149 2.48-6.862 3.01-12.119a5.65 5.65 0 0 1-.08-1.016c.03-1.621-.09-3.171-.35-4.604-.98-5.262-3.91-8.691-5.66-10.74-.31-.36-.58-.684-.81-.973a4.581 4.581 0 0 1-.22-.276 41.315 41.315 0 0 0-4.85-4.203c-7.14-5.325-10.55-4.994-12.188-4.835l-.239.023c-.424.037-1.192.271-2.005.52-2.114.644-5.009 1.526-7.145.693-1.972-.77-2.149-2.73-2.321-4.625-.123-1.359-.25-2.765-.989-3.86-1.583-2.348-5.658-1.165-7.815-.096-.852.423-1.494.943-2.059 1.403-.969.787-1.971 1.601-3.483 1.229-.965-.238-1.589-.896-2.193-1.532-.765-.806-1.427-1.503-2.794-1.47-1.356.031-1.5.409-1.761 1.093-.175.458-.393 1.029-.965 1.451-1.017.752-1.879.322-2.507.009-.451-.225-.877-.437-1.513-.428-.799.012-2.095 1.228-2.994 2.323 1.016.853 2.817 2.846 4.834 7.282 1.151 2.532 1.386 4.446 1.634 6.473.388 3.168.828 6.758 5.098 14.041 5.017 8.554 11.391 12.179 15.2 14.345.489.279.932.531 1.315.761.308.185 1.022.526 1.596.799.416.199.801.383 1.037.507 3.561 1.878 8.27 2.676 14.007 2.377-4.298-1.256-10.694-3.822-16.637-8.9-9.964-8.513-15.402-25.052-15.628-25.751a.838.838 0 0 1 .554-1.055.857.857 0 0 1 1.072.545c.052.159 4.996 15.193 13.732 23.722.553-1.653 1.662-5.491 1.041-8.16a130.836 130.836 0 0 0-.71-2.883c-.529-2.071-.912-3.567-.981-5.329l-.001-.033c0-.448.36-.82.82-.838a.848.848 0 0 1 .886.806c.06 1.511.393 2.876.859 4.705l1.596-1.635a.864.864 0 0 1 1.207-.025.83.83 0 0 1 .025 1.187l-2.341 2.399c.098.4.201.824.305 1.274.846 3.651-.969 8.793-1.34 9.784l.023.02c3.19 2.725 6.547 4.701 9.61 6.125-1.238-2.237-2.835-5.89-1.655-8.215.783-1.544 2.193-2.719 3.556-3.856 1.491-1.243 2.897-2.417 3.427-3.954a.857.857 0 0 1 1.08-.526c.45.148.69.624.54 1.064-.68 1.978-2.34 3.36-3.943 4.696-.582.485-1.149.958-1.655 1.445 1.109.352 3.208.939 4.918.958 2.44.027 5.89-1.17 5.93-1.182a.86.86 0 0 1 1.09.509.846.846 0 0 1-.52 1.072c-.15.054-3.77 1.31-6.52 1.28-2.41-.026-5.316-.989-6.083-1.258a5.07 5.07 0 0 0-.293.501c-1.061 2.094 1.663 6.904 2.702 8.425.039.057.07.118.093.18 4.861 1.895 8.461 2.356 8.521 2.364l.03.003c7.72-1.157 11.18-3.471 11.9-4.016Zm-5.39-33.234c.05-1.814.36-4.495 1.51-7.427 1.11-2.822 1.38-4.826.79-5.954-.32-.63-.95-1.06-1.93-1.317-.88-.232-1.65-.392-2.39-.546-1.77-.37-3.31-.689-4.96-1.809-1.39-.945-1.04-2.263-.84-3.05.09-.341.19-.727.11-.86-.04-.053-.28-.333-1.47-.526-2.05-.33-4.16.303-5.853.811-1.571.472-2.707.812-3.555.348a1.543 1.543 0 0 1-.753-.986c-.258-.966.009-1.781.224-2.437.301-.917.374-1.136-.529-1.654-.768-.44-1.764-.407-2.818-.37-1.623.055-3.616.123-5.047-1.74-1.123.61-4.952 2.828-7.951 6.193-3.156 3.542-5.569 8.243-6.133 9.384.064.028.129.05.196.067.622.153.993-.093 1.98-.895.604-.49 1.355-1.1 2.378-1.608 3.304-1.637 7.907-2.445 10.006.666.978 1.451 1.132 3.145 1.267 4.64.164 1.805.302 2.843 1.251 3.213 1.576.616 4.138-.166 6.009-.736.941-.287 1.754-.535 2.358-.588l.224-.021c1.856-.18 5.716-.555 13.386 5.167.89.665 1.74 1.344 2.54 2.035ZM1157.99 168.353c0 3.751-.83 7.433-2.48 11.017a68.083 68.083 0 0 1-6.94 11.799c-.11.161-.24.314-.37.457l3.25 3.976c.22.276.25.662.06.964-.09.138-2.14 3.407-5.42 6.175-3.29 2.777-6.53 3.994-6.66 4.045a.87.87 0 0 1-.87-.157l-2.81-2.443a.98.98 0 0 1-.17-.201c-2.47 1.249-7.06 2.926-14.63 3.53-6.7.535-12.2-.299-16.33-2.48-.23-.117-.59-.289-.98-.476-.67-.319-1.36-.65-1.74-.878-.37-.224-.8-.468-1.28-.739-3.7-2.103-10.58-6.018-15.82-14.961-4.45-7.579-4.91-11.351-5.32-14.678-.24-1.979-.45-3.688-1.5-5.988-2.66-5.853-4.83-7.022-4.86-7.033a.886.886 0 0 1-.44-.547.826.826 0 0 1 .12-.682c.43-.613 2.69-3.674 4.88-3.707 1.05-.016 1.78.345 2.31.609.54.271.55.261.71.147.16-.123.25-.346.39-.7.32-.845.81-2.122 3.32-2.181 1.99-.048 3.11.989 3.92 1.833.84-1.668 3.15-5.945 6.17-9.338 1.96-2.191 4.24-3.91 5.81-4.967 1.2-.805 1.99-1.291 2.53-1.568-.6-1.081-.85-1.816-1.05-2.387-.23-.67-.36-1.039-.91-1.619-1.82-1.929-.39-5.081-.12-5.462a.915.915 0 0 1 .65-.383c.49-.054.79.221 1.34.721.92.83 2.82 2.557 6.04 3.387 2.89.743 6.25.588 9.21.451 1.87-.087 3.64-.168 5.03-.002 4.57.541 14.06 1.669 21.87 8.562 3.74 3.296 7 7.432 9.28 11.711.06.075.1.158.13.246a34.066 34.066 0 0 1 1.48 3.179c1.46 3.636 2.2 7.233 2.2 10.768Zm-2.19 4.609c1.19-6.27-.24-12.375-2.97-17.696-.76-.369-3.32-1.437-7.18-1.357-4.55.093-5.99.869-6 .877a.88.88 0 0 1-1.17-.294.833.833 0 0 1 .27-1.137c.17-.104 1.8-1.02 6.86-1.125 2.52-.051 4.53.337 5.94.757-2.19-3.612-4.95-6.782-7.79-9.289a28.537 28.537 0 0 0-4.57-3.294c-.77.307-2.97.999-6.67.623-4.32-.437-6.67-.598-6.69-.599a.863.863 0 0 1-.8-.895.853.853 0 0 1 .91-.78c.03.002 2.4.164 6.75.605 1.9.192 3.34.076 4.34-.1-5.58-2.683-11.09-3.336-14.2-3.705-1.26-.149-2.95-.071-4.75.012-3.08.142-6.58.304-9.72-.504-3.36-.864-5.42-2.566-6.51-3.549-.21.782-.32 1.885.28 2.522.8.841 1.02 1.478 1.28 2.216.24.698.54 1.566 1.49 3.076.88 1.394 2.02 1.427 3.83 1.366 1.19-.041 2.54-.087 3.73.598 2.09 1.198 1.61 2.656 1.3 3.62-.17.522-.32.976-.21 1.449.37.045 1.4-.265 2.17-.496 1.76-.529 4.18-1.254 6.62-.862 1.36.22 2.2.622 2.63 1.266.49.751.29 1.552.12 2.194-.22.845-.2 1.009.15 1.252 1.37.928 2.62 1.188 4.34 1.547.73.151 1.56.323 2.48.568 1.45.381 2.47 1.113 3.02 2.177.83 1.615.6 3.942-.73 7.32a20.027 20.027 0 0 0-1.39 7.112v.027c0 .729.34 1.387.88 2.111 4.73 4.845 7.39 10.181 7.63 15.438a22.67 22.67 0 0 1-.09 3.17c.3 1.181 1.23 1.893 2.12 2.183 1.1.361 2.65.242 3.69-1.178a67.078 67.078 0 0 0 6.77-11.51 24.709 24.709 0 0 0 1.35-3.654c-.41-.536-2.41-3.015-5.86-5.302-.41.177-2.87 1.209-5.05 1.334-1.09.062-2.49.098-2.98-.081l.6-1.571s-.02-.011-.07-.022c.02.004.51.104 2.35-.002 1.14-.065 2.43-.444 3.34-.76-4.5-2.552-6.1-2.927-6.12-2.93-.45-.101-.75-.546-.65-.995a.85.85 0 0 1 1-.648c.19.037 1.96.444 6.98 3.327 3.41 1.956 5.74 4.229 6.95 5.588Zm-16.51 32.06c.97-.427 3.34-1.572 5.69-3.556 2.35-1.983 4.07-4.298 4.75-5.288l-2.57-3.141c-.9 1.15-2.36 2.996-3.39 4.174-2.72 3.114-5.85 5.358-5.98 5.452a.779.779 0 0 1-.17.094c-.13.097-.3.219-.52.361l2.19 1.904Zm-.18-5.584a35.225 35.225 0 0 0 3.37-3.32 77.91 77.91 0 0 0 2.38-2.906 5.115 5.115 0 0 1-1.9-.254 4.985 4.985 0 0 1-1.93-1.145c-.5 2.892-1.29 5.67-1.92 7.625Zm-2.47 1.942c.43-1.149 2.48-6.862 3.01-12.118a5.658 5.658 0 0 1-.08-1.016 23.45 23.45 0 0 0-.35-4.604c-.98-5.263-3.91-8.692-5.66-10.74-.31-.361-.58-.685-.81-.973a4.598 4.598 0 0 1-.22-.277 41.325 41.325 0 0 0-4.85-4.203c-7.14-5.325-10.55-4.993-12.19-4.834l-.24.022c-.42.038-1.19.272-2 .52-2.12.644-5.01 1.527-7.15.693-1.97-.77-2.15-2.73-2.32-4.625-.12-1.359-.25-2.764-.99-3.86-1.58-2.348-5.65-1.164-7.81-.096-.85.423-1.5.944-2.06 1.403-.97.788-1.97 1.602-3.48 1.229-.97-.238-1.59-.896-2.2-1.532-.76-.806-1.42-1.503-2.79-1.471-1.36.033-1.5.41-1.76 1.094-.18.458-.4 1.029-.97 1.451-1.01.752-1.88.323-2.5.009-.46-.225-.88-.437-1.52-.427-.8.011-2.09 1.227-2.99 2.322 1.01.853 2.82 2.847 4.83 7.282 1.15 2.533 1.39 4.447 1.64 6.473.39 3.168.83 6.759 5.1 14.041 5.01 8.554 11.39 12.18 15.2 14.346.48.278.93.53 1.31.76.31.185 1.02.526 1.6.799.41.199.8.383 1.03.507 3.56 1.878 8.27 2.676 14.01 2.377-4.3-1.256-10.69-3.822-16.64-8.9-9.96-8.512-15.4-25.051-15.63-25.751a.84.84 0 0 1 .56-1.054.852.852 0 0 1 1.07.544c.05.159 5 15.194 13.73 23.722.56-1.653 1.67-5.491 1.04-8.16a88.556 88.556 0 0 0-.71-2.883c-.53-2.071-.91-3.567-.98-5.328v-.033c0-.449.36-.821.82-.838.47-.018.87.342.89.805.06 1.512.39 2.876.86 4.705l1.59-1.635a.87.87 0 0 1 1.21-.025c.34.322.35.853.03 1.187l-2.35 2.399c.1.401.2.824.31 1.274.84 3.651-.97 8.794-1.34 9.784.01.007.01.014.02.021 3.19 2.724 6.55 4.7 9.61 6.125-1.24-2.238-2.83-5.891-1.65-8.216.78-1.544 2.19-2.719 3.55-3.856 1.49-1.243 2.9-2.416 3.43-3.954a.857.857 0 0 1 1.08-.526c.45.149.69.624.54 1.064-.68 1.979-2.34 3.36-3.94 4.696-.58.485-1.15.958-1.66 1.446 1.11.352 3.21.939 4.92.958 2.44.026 5.89-1.171 5.93-1.183a.86.86 0 0 1 1.09.509.848.848 0 0 1-.52 1.073c-.15.053-3.77 1.31-6.52 1.279-2.41-.026-5.32-.989-6.08-1.258-.11.164-.21.33-.3.501-1.06 2.095 1.67 6.905 2.71 8.425.03.057.07.118.09.18 4.86 1.896 8.46 2.357 8.52 2.364l.03.003c7.72-1.157 11.18-3.471 11.9-4.016Zm-5.39-33.234a22.17 22.17 0 0 1 1.51-7.426c1.11-2.823 1.38-4.827.79-5.955-.32-.629-.95-1.059-1.93-1.316-.88-.233-1.65-.393-2.39-.547-1.77-.369-3.31-.688-4.96-1.808-1.39-.946-1.04-2.264-.84-3.051.09-.341.19-.727.11-.859-.04-.054-.28-.334-1.47-.526-2.05-.33-4.16.303-5.85.811-1.57.471-2.71.812-3.56.347a1.55 1.55 0 0 1-.75-.986c-.26-.965.01-1.781.22-2.436.3-.918.38-1.137-.53-1.655-.76-.44-1.76-.406-2.81-.37-1.63.055-3.62.124-5.05-1.74-1.12.61-4.95 2.828-7.95 6.194-3.16 3.541-5.57 8.242-6.13 9.383.06.028.12.051.19.067.62.153.99-.093 1.98-.895.6-.491 1.36-1.101 2.38-1.608 3.3-1.637 7.91-2.445 10.01.667.97 1.45 1.13 3.144 1.26 4.639.17 1.805.3 2.843 1.25 3.213 1.58.616 4.14-.165 6.01-.736.94-.287 1.76-.534 2.36-.588l.22-.021c1.86-.18 5.72-.555 13.39 5.168a45.65 45.65 0 0 1 2.54 2.034ZM1271.75 98.5c0 3.751-.82 7.432-2.47 11.016a68.686 68.686 0 0 1-6.94 11.799c-.12.162-.25.314-.38.458l3.25 3.976c.23.276.25.662.06.964-.08.137-2.13 3.407-5.42 6.174-3.29 2.778-6.52 3.995-6.66 4.045a.87.87 0 0 1-.87-.156l-2.8-2.443a.743.743 0 0 1-.17-.201c-2.47 1.249-7.07 2.926-14.64 3.53-6.7.535-12.19-.299-16.33-2.48-.22-.117-.58-.289-.97-.476-.67-.32-1.37-.65-1.75-.878-.37-.224-.8-.469-1.28-.74-3.69-2.103-10.57-6.017-15.82-14.96-4.44-7.579-4.91-11.351-5.31-14.678-.25-1.979-.46-3.688-1.5-5.988-2.66-5.853-4.84-7.022-4.86-7.033a.854.854 0 0 1-.33-1.23c.44-.612 2.7-3.673 4.88-3.706 1.06-.017 1.78.345 2.31.609.54.27.56.26.71.147.17-.123.26-.346.39-.7.33-.846.81-2.122 3.32-2.181 2-.048 3.11.989 3.92 1.833.85-1.668 3.15-5.945 6.18-9.338 1.95-2.192 4.23-3.91 5.8-4.967 1.2-.805 1.99-1.29 2.53-1.568a14.49 14.49 0 0 1-1.05-2.387c-.23-.67-.36-1.04-.9-1.62-1.82-1.928-.39-5.08-.13-5.461a.918.918 0 0 1 .66-.383c.49-.054.79.221 1.34.72.91.83 2.81 2.558 6.03 3.387 2.89.744 6.25.588 9.21.452 1.87-.087 3.64-.168 5.04-.002 4.56.541 14.06 1.669 21.87 8.562 3.73 3.296 6.99 7.432 9.28 11.711.06.075.1.158.13.245a34.126 34.126 0 0 1 1.47 3.18c1.47 3.635 2.2 7.233 2.2 10.768Zm-2.19 4.608c1.2-6.27-.23-12.375-2.97-17.696-.76-.369-3.31-1.436-7.18-1.356-4.55.093-5.99.869-6 .877a.869.869 0 0 1-1.16-.295.824.824 0 0 1 .27-1.136c.17-.104 1.79-1.02 6.86-1.125 2.51-.051 4.52.336 5.94.756a41.016 41.016 0 0 0-7.79-9.288 29.02 29.02 0 0 0-4.58-3.294c-.76.307-2.97.998-6.67.623-4.31-.437-6.67-.598-6.69-.6a.847.847 0 0 1-.79-.894.847.847 0 0 1 .91-.78c.02.002 2.4.164 6.74.604 1.9.192 3.35.077 4.34-.1-5.58-2.682-11.08-3.335-14.2-3.705-1.25-.148-2.95-.07-4.75.013-3.08.142-6.58.304-9.72-.505-3.35-.863-5.41-2.565-6.51-3.548-.2.782-.31 1.884.29 2.521.79.842 1.01 1.479 1.27 2.217.24.698.54 1.566 1.49 3.076.88 1.394 2.03 1.427 3.83 1.366 1.19-.041 2.54-.087 3.74.598 2.09 1.197 1.61 2.655 1.29 3.62-.17.522-.32.976-.21 1.449.37.044 1.41-.266 2.17-.496 1.77-.53 4.19-1.254 6.63-.862 1.36.22 2.19.622 2.62 1.266.5.751.29 1.551.12 2.194-.22.844-.2 1.009.16 1.251 1.36.93 2.61 1.188 4.34 1.548.73.151 1.55.323 2.48.567 1.45.382 2.46 1.114 3.01 2.177.84 1.616.61 3.943-.72 7.32a20.303 20.303 0 0 0-1.4 7.113v.026c0 .73.35 1.388.89 2.112 4.72 4.845 7.38 10.18 7.63 15.438.04 1.016 0 2.086-.1 3.169.3 1.182 1.23 1.894 2.12 2.184 1.1.361 2.65.242 3.69-1.178a66.445 66.445 0 0 0 6.77-11.511 25.903 25.903 0 0 0 1.36-3.653c-.42-.536-2.42-3.015-5.87-5.302-.4.176-2.87 1.209-5.05 1.334-1.09.062-2.49.098-2.97-.081l.6-1.571s-.02-.01-.07-.023c.02.005.5.105 2.34 0 1.15-.066 2.44-.445 3.34-.762-4.5-2.55-6.1-2.926-6.12-2.93a.854.854 0 0 1-.65-.995c.1-.45.55-.739 1-.647.19.037 1.96.444 6.99 3.327 3.41 1.955 5.73 4.228 6.94 5.587Zm-16.51 32.061a24.13 24.13 0 0 0 5.69-3.556c2.35-1.983 4.07-4.298 4.75-5.288l-2.57-3.141c-.89 1.15-2.35 2.996-3.38 4.174-2.72 3.114-5.85 5.357-5.99 5.451a.96.96 0 0 1-.16.095c-.14.097-.31.219-.53.36l2.19 1.905Zm-.17-5.584c1.02-.884 2.24-2.031 3.36-3.32.69-.789 1.6-1.912 2.39-2.906a5.167 5.167 0 0 1-1.91-.254 5.06 5.06 0 0 1-1.93-1.145c-.49 2.891-1.28 5.67-1.91 7.625Zm-2.48 1.942c.43-1.149 2.48-6.862 3.02-12.119a4.865 4.865 0 0 1-.08-1.016c.03-1.621-.09-3.171-.36-4.604-.98-5.262-3.91-8.691-5.66-10.74-.3-.36-.58-.684-.81-.973-.07-.091-.14-.183-.22-.276a42.016 42.016 0 0 0-4.84-4.203c-7.14-5.325-10.55-4.994-12.19-4.835l-.24.023c-.43.037-1.2.271-2.01.52-2.11.644-5.01 1.526-7.14.693-1.97-.77-2.15-2.73-2.32-4.625-.13-1.359-.25-2.765-.99-3.86-1.59-2.348-5.66-1.165-7.82-.096-.85.423-1.49.943-2.06 1.403-.97.787-1.97 1.601-3.48 1.229-.97-.238-1.59-.896-2.19-1.532-.77-.806-1.43-1.503-2.8-1.47-1.35.031-1.5.409-1.76 1.093-.17.458-.39 1.029-.96 1.451-1.02.752-1.88.322-2.51.009-.45-.225-.88-.437-1.51-.428-.8.012-2.1 1.228-3 2.323 1.02.853 2.82 2.846 4.84 7.282 1.15 2.532 1.38 4.446 1.63 6.473.39 3.168.83 6.758 5.1 14.041 5.02 8.554 11.39 12.179 15.2 14.345.49.279.93.531 1.31.761.31.185 1.03.526 1.6.799.42.199.8.383 1.04.507 3.56 1.878 8.27 2.676 14.01 2.377-4.3-1.256-10.7-3.822-16.64-8.9-9.97-8.513-15.4-25.052-15.63-25.751a.836.836 0 0 1 .55-1.055c.45-.14.93.104 1.08.545.05.159 4.99 15.193 13.73 23.722.55-1.653 1.66-5.491 1.04-8.16-.26-1.097-.5-2.046-.71-2.883-.53-2.071-.91-3.567-.98-5.329v-.033c0-.448.36-.82.82-.838.47-.018.86.343.88.806.06 1.511.39 2.876.86 4.705l1.6-1.635a.856.856 0 0 1 1.2-.025c.34.322.36.852.03 1.187l-2.34 2.399c.1.4.2.824.3 1.274.85 3.651-.97 8.793-1.34 9.784a.52.52 0 0 0 .03.02c3.19 2.725 6.54 4.701 9.61 6.125-1.24-2.237-2.84-5.89-1.66-8.215.78-1.544 2.19-2.719 3.56-3.856 1.49-1.243 2.9-2.417 3.42-3.954a.868.868 0 0 1 1.09-.526c.44.148.68.624.53 1.064-.68 1.978-2.34 3.36-3.94 4.696-.58.485-1.15.958-1.65 1.445 1.1.352 3.2.939 4.91.958 2.44.027 5.9-1.17 5.93-1.182a.86.86 0 0 1 1.09.509.83.83 0 0 1-.52 1.072c-.15.054-3.77 1.31-6.51 1.28-2.41-.026-5.32-.989-6.09-1.258-.11.163-.2.33-.29.501-1.06 2.094 1.66 6.904 2.7 8.425.04.057.07.118.09.18 4.86 1.895 8.46 2.356 8.53 2.364l.02.003c7.72-1.157 11.18-3.471 11.9-4.016Zm-5.38-33.234c.04-1.814.35-4.495 1.5-7.427 1.11-2.822 1.38-4.826.8-5.954-.33-.63-.96-1.06-1.93-1.317a44.42 44.42 0 0 0-2.4-.546c-1.77-.37-3.3-.689-4.95-1.809-1.39-.945-1.05-2.263-.84-3.05.09-.341.19-.727.1-.86-.04-.053-.28-.333-1.47-.526-2.05-.33-4.16.303-5.85.811-1.57.472-2.71.812-3.55.348-.26-.144-.61-.431-.76-.986-.25-.966.01-1.781.23-2.437.3-.917.37-1.136-.53-1.654-.77-.44-1.77-.407-2.82-.37-1.62.055-3.62.123-5.05-1.74-1.12.61-4.95 2.828-7.95 6.193-3.15 3.542-5.57 8.243-6.13 9.384.06.028.13.05.19.067.63.153 1-.093 1.99-.895.6-.49 1.35-1.1 2.37-1.608 3.31-1.637 7.91-2.445 10.01.666.98 1.451 1.13 3.145 1.27 4.64.16 1.805.3 2.843 1.25 3.213 1.57.616 4.14-.166 6.01-.736.94-.287 1.75-.535 2.35-.588l.23-.021c1.85-.18 5.72-.555 13.39 5.167.89.665 1.73 1.344 2.54 2.035Z"/></svg>