<svg xmlns="http://www.w3.org/2000/svg" width="183" height="147" fill="none"><path fill="#DFE2EB" d="M41.653 108.396c-3.974 0-7.874-.857-11.67-2.569a72.996 72.996 0 0 1-12.5-7.21 5.528 5.528 0 0 1-.485-.39l-4.211 3.377a.889.889 0 0 1-1.022.065c-.145-.089-3.609-2.221-6.54-5.63C2.281 92.616.992 89.256.938 89.115a.884.884 0 0 1 .166-.9L3.693 85.3a.89.89 0 0 1 .213-.176c-1.323-2.566-3.1-7.34-3.74-15.202-.567-6.961.318-12.67 2.628-16.967.123-.23.306-.606.504-1.013.339-.696.688-1.416.93-1.81.238-.386.496-.833.783-1.328 2.228-3.84 6.375-10.99 15.849-16.437 8.03-4.616 12.025-5.096 15.55-5.52 2.096-.252 3.906-.47 6.343-1.557 6.2-2.764 7.438-5.026 7.45-5.049a.91.91 0 0 1 .58-.458.893.893 0 0 1 .722.123c.65.447 3.892 2.795 3.927 5.064.018 1.1-.365 1.852-.645 2.4-.286.564-.276.577-.155.738.13.172.366.267.741.408.896.335 2.248.841 2.31 3.446.051 2.074-1.047 3.233-1.941 4.073 1.767.878 6.298 3.276 9.892 6.416 2.321 2.028 4.142 4.4 5.261 6.03.854 1.245 1.368 2.066 1.662 2.628 1.145-.618 1.924-.884 2.528-1.09.71-.242 1.102-.376 1.716-.944 2.043-1.889 5.382-.404 5.786-.126a.95.95 0 0 1 .406.678c.056.508-.235.822-.764 1.393-.88.948-2.709 2.922-3.588 6.272-.787 3.001-.623 6.49-.478 9.566.092 1.943.178 3.777.003 5.228-.574 4.74-1.769 14.608-9.07 22.718-3.493 3.879-7.875 7.267-12.407 9.642a.923.923 0 0 1-.26.135 37.376 37.376 0 0 1-3.368 1.533c-3.852 1.521-7.663 2.282-11.408 2.282Zm-4.882-2.272c6.642 1.24 13.11-.245 18.747-3.085.39-.793 1.521-3.447 1.437-7.459-.099-4.728-.92-6.221-.93-6.235a.894.894 0 0 1 .313-1.208.882.882 0 0 1 1.204.28c.11.176 1.08 1.862 1.191 7.126.054 2.611-.356 4.699-.801 6.169a43.125 43.125 0 0 0 9.84-8.091 29.854 29.854 0 0 0 3.49-4.753c-.326-.793-1.059-3.084-.66-6.932.462-4.48.633-6.923.634-6.947a.895.895 0 0 1 .948-.824c.49.033.86.457.826.945-.002.025-.174 2.493-.64 7.009-.204 1.973-.081 3.47.105 4.502 2.843-5.795 3.534-11.512 3.926-14.747.157-1.303.075-3.066-.013-4.932-.151-3.204-.322-6.836.534-10.098.915-3.488 2.718-5.626 3.76-6.763-.829-.215-1.997-.33-2.672.295-.891.824-1.567 1.054-2.348 1.321-.74.252-1.659.566-3.259 1.552-1.476.91-1.512 2.104-1.447 3.976.044 1.239.092 2.642-.633 3.883-1.269 2.17-2.813 1.671-3.835 1.344-.553-.178-1.034-.334-1.535-.218-.047.383.281 1.457.525 2.255.561 1.834 1.329 4.345.913 6.88-.232 1.415-.658 2.281-1.34 2.725-.797.519-1.644.302-2.325.127-.895-.23-1.069-.21-1.326.163-.984 1.419-1.258 2.715-1.639 4.508-.16.755-.343 1.612-.601 2.576-.404 1.505-1.18 2.558-2.306 3.129-1.712.868-4.177.629-7.755-.752a21.819 21.819 0 0 0-7.535-1.45h-.028c-.772 0-1.47.36-2.237.922-5.132 4.905-10.784 7.673-16.354 7.924-1.076.048-2.21.008-3.358-.097-1.251.313-2.005 1.278-2.313 2.2-.382 1.147-.256 2.757 1.248 3.835a71.139 71.139 0 0 0 12.194 7.033 27.031 27.031 0 0 0 3.87 1.405c.568-.427 3.195-2.505 5.617-6.09-.187-.422-1.28-2.98-1.413-5.247-.066-1.13-.104-2.584.086-3.09l1.664.624s.011-.02.024-.073c-.005.02-.111.522.001 2.435.07 1.19.47 2.53.806 3.468 2.703-4.671 3.1-6.336 3.104-6.352a.894.894 0 0 1 1.054-.676.882.882 0 0 1 .686 1.038c-.04.193-.47 2.033-3.525 7.256-2.071 3.542-4.48 5.954-5.919 7.214ZM2.808 88.974a25.13 25.13 0 0 0 3.767 5.91c2.1 2.443 4.553 4.225 5.602 4.934l3.327-2.668c-1.218-.932-3.174-2.449-4.422-3.518-3.299-2.825-5.675-6.078-5.775-6.215a.92.92 0 0 1-.1-.176 10.75 10.75 0 0 1-.382-.54l-2.017 2.272Zm5.915-.183c.937 1.06 2.151 2.326 3.517 3.496.836.716 2.025 1.659 3.079 2.478a5.27 5.27 0 0 1 .268-1.982c.26-.78.679-1.458 1.214-2.004-3.064-.512-6.007-1.335-8.078-1.988Zm-2.057-2.57c1.217.444 7.27 2.571 12.838 3.13a5.485 5.485 0 0 1 1.076-.085c1.718.031 3.36-.09 4.877-.366 5.575-1.016 9.207-4.06 11.378-5.878.382-.32.725-.607 1.03-.846l.293-.224a43.781 43.781 0 0 0 4.453-5.036c5.64-7.414 5.29-10.96 5.122-12.663l-.024-.248c-.04-.44-.288-1.239-.55-2.083-.684-2.196-1.618-5.203-.735-7.422.815-2.048 2.891-2.233 4.899-2.411 1.44-.128 2.929-.26 4.09-1.027 2.487-1.645 1.233-5.878.1-8.118-.447-.886-.998-1.552-1.485-2.14-.835-1.006-1.697-2.048-1.302-3.618.252-1.003.949-1.65 1.622-2.278.855-.795 1.593-1.482 1.559-2.903-.034-1.408-.434-1.557-1.159-1.829-.486-.182-1.09-.408-1.537-1.002-.797-1.057-.342-1.951-.01-2.605.239-.468.464-.91.453-1.571-.012-.83-1.3-2.176-2.46-3.11-.904 1.055-3.016 2.926-7.715 5.021-2.682 1.196-4.71 1.44-6.856 1.698-3.356.403-7.16.86-14.875 5.296-9.062 5.21-12.903 11.832-15.197 15.79-.295.508-.562.967-.806 1.365-.196.32-.557 1.062-.846 1.658-.211.432-.406.832-.537 1.077-1.99 3.7-2.835 8.59-2.519 14.555 1.331-4.468 4.05-11.113 9.429-17.287 9.018-10.35 26.538-15.999 27.28-16.234a.886.886 0 1 1 .54 1.69c-.169.053-16.096 5.19-25.13 14.264 1.75.574 5.816 1.727 8.644 1.081a139.38 139.38 0 0 0 3.054-.738c2.194-.55 3.78-.946 5.645-1.019h.035a.888.888 0 0 1 .034 1.772c-1.601.062-3.046.408-4.984.892l1.732 1.658c.354.34.366.9.026 1.254a.891.891 0 0 1-1.257.026l-2.541-2.432c-.425.102-.874.209-1.35.317-3.868.878-9.316-1.006-10.365-1.392l-.021.024c-2.887 3.314-4.98 6.8-6.489 9.983 2.37-1.286 6.24-2.946 8.703-1.72 1.636.814 2.88 2.279 4.085 3.695 1.317 1.548 2.56 3.01 4.19 3.56a.886.886 0 1 1-.571 1.68c-2.096-.708-3.56-2.429-4.975-4.093-.514-.605-1.015-1.195-1.531-1.72-.373 1.152-.995 3.33-1.015 5.11-.028 2.532 1.24 6.119 1.252 6.154a.89.89 0 0 1-1.675.595c-.057-.158-1.388-3.918-1.356-6.77.028-2.503 1.048-5.523 1.334-6.32a5.52 5.52 0 0 0-.531-.304c-2.22-1.103-7.315 1.727-8.925 2.806a.88.88 0 0 1-.191.097c-2.008 5.046-2.496 8.787-2.504 8.853l-.004.025C3.637 81.879 6.09 85.469 6.666 86.22Zm35.206-5.595c1.922.047 4.763.367 7.868 1.565 2.99 1.154 5.113 1.43 6.308.824.666-.337 1.122-.993 1.395-2.006.246-.918.415-1.714.578-2.484.392-1.844.73-3.437 1.916-5.149 1.002-1.446 2.398-1.087 3.232-.872.361.092.77.197.91.105.057-.037.354-.286.558-1.527.349-2.127-.321-4.316-.86-6.076-.499-1.632-.86-2.812-.367-3.693.152-.27.456-.627 1.044-.782 1.023-.268 1.887.01 2.58.233.973.312 1.205.389 1.754-.55.466-.797.43-1.832.392-2.927-.059-1.686-.131-3.757 1.843-5.243-.646-1.166-2.996-5.144-6.561-8.26-3.752-3.278-8.732-5.784-9.94-6.37a1.26 1.26 0 0 0-.072.203c-.162.646.1 1.032.949 2.057.52.627 1.166 1.408 1.703 2.47 1.734 3.433 2.59 8.215-.706 10.395-1.537 1.016-3.331 1.175-4.915 1.316-1.912.17-3.012.314-3.404 1.299-.652 1.637.175 4.299.78 6.243.304.977.566 1.822.623 2.449l.022.232c.191 1.93.588 5.942-5.474 13.91a48.964 48.964 0 0 1-2.156 2.638ZM183 42.011c0 3.958-.86 7.842-2.579 11.623a72.52 72.52 0 0 1-7.238 12.45c-.123.17-.254.33-.393.483l3.391 4.194c.236.291.262.699.065 1.017-.089.145-2.23 3.595-5.653 6.515-3.435 2.93-6.809 4.215-6.951 4.268a.894.894 0 0 1-.904-.165l-2.928-2.578a.912.912 0 0 1-.176-.212c-2.576 1.318-7.37 3.087-15.263 3.725-6.99.564-12.722-.316-17.036-2.617-.231-.123-.609-.305-1.017-.502-.699-.338-1.422-.686-1.817-.926-.389-.237-.837-.495-1.334-.78-3.856-2.22-11.034-6.35-16.503-15.785-4.636-7.997-5.118-11.977-5.543-15.487-.253-2.088-.472-3.891-1.563-6.318-2.776-6.175-5.047-7.409-5.07-7.42a.907.907 0 0 1-.46-.578.884.884 0 0 1 .124-.72c.45-.646 2.806-3.875 5.084-3.91 1.104-.018 1.86.363 2.411.642.566.286.579.275.74.155.173-.13.268-.365.409-.739.337-.891.846-2.238 3.461-2.3 2.083-.05 3.246 1.043 4.089 1.934.882-1.76 3.289-6.273 6.442-9.852 2.037-2.313 4.418-4.126 6.055-5.241 1.25-.85 2.074-1.362 2.639-1.655a14.761 14.761 0 0 1-1.095-2.518c-.243-.707-.377-1.097-.948-1.709-1.896-2.035-.406-5.36-.126-5.762a.956.956 0 0 1 .68-.405c.511-.056.826.234 1.399.76.952.877 2.934 2.7 6.297 3.575 3.014.784 6.516.62 9.605.475 1.951-.09 3.793-.177 5.249-.002 4.76.572 14.667 1.761 22.81 9.034 3.895 3.478 7.296 7.842 9.681 12.357.06.078.105.166.136.259a37.223 37.223 0 0 1 1.539 3.354C182.237 34.486 183 38.282 183 42.01Zm-2.281 4.863c1.246-6.616-.246-13.057-3.098-18.671-.796-.39-3.46-1.516-7.488-1.432-4.747.099-6.247.917-6.261.926a.901.901 0 0 1-1.212-.31.874.874 0 0 1 .281-1.2c.176-.11 1.869-1.077 7.154-1.187 2.622-.054 4.719.355 6.194.798a43.011 43.011 0 0 0-8.124-9.8 29.946 29.946 0 0 0-4.772-3.475c-.796.324-3.097 1.053-6.959.657-4.499-.461-6.952-.63-6.976-.633a.894.894 0 0 1-.827-.944.887.887 0 0 1 .949-.822c.025.002 2.503.173 7.037.637 1.981.203 3.485.082 4.521-.104-5.82-2.831-11.559-3.52-14.808-3.91-1.308-.157-3.078-.075-4.951.013-3.218.15-6.864.32-10.139-.532-3.503-.912-5.649-2.707-6.791-3.744-.216.825-.33 1.988.297 2.66.827.888 1.058 1.56 1.326 2.34.253.735.568 1.65 1.558 3.244.914 1.471 2.112 1.506 3.992 1.441 1.244-.043 2.653-.091 3.899.631 2.179 1.264 1.678 2.802 1.349 3.82-.179.55-.335 1.03-.218 1.529.385.047 1.462-.28 2.264-.524 1.841-.558 4.362-1.323 6.907-.909 1.422.232 2.291.656 2.737 1.335.52.793.303 1.638.127 2.315-.231.892-.21 1.065.163 1.321 1.425.98 2.726 1.253 4.527 1.632.758.16 1.619.342 2.586.6 1.512.402 2.569 1.174 3.142 2.296.871 1.705.632 4.16-.755 7.724a21.579 21.579 0 0 0-1.456 7.504v.028c0 .77.361 1.464.926 2.228 4.925 5.112 7.704 10.74 7.956 16.288.049 1.072.009 2.201-.097 3.344.314 1.246 1.283 1.998 2.208 2.304 1.152.38 2.768.255 3.851-1.243a70.75 70.75 0 0 0 7.061-12.145 26.774 26.774 0 0 0 1.411-3.854c-.429-.566-2.515-3.182-6.113-5.595-.425.187-2.994 1.276-5.27 1.408-1.135.066-2.594.104-3.102-.086l.627-1.657s-.021-.011-.074-.024c.021.005.524.11 2.445-.001 1.195-.069 2.539-.468 3.482-.803-4.69-2.691-6.361-3.087-6.378-3.09a.884.884 0 0 1 .363-1.733c.194.038 2.042.467 7.286 3.51 3.557 2.062 5.979 4.46 7.243 5.895ZM163.499 80.7a25.259 25.259 0 0 0 5.935-3.752c2.453-2.092 4.241-4.534 4.954-5.58l-2.679-3.313c-.936 1.213-2.459 3.161-3.533 4.404-2.836 3.286-6.102 5.653-6.24 5.752a.909.909 0 0 1-.177.1c-.136.101-.316.23-.542.38l2.282 2.01Zm-.183-5.891c1.064-.933 2.335-2.143 3.51-3.504.719-.832 1.666-2.017 2.488-3.065a5.329 5.329 0 0 1-1.99-.268 5.235 5.235 0 0 1-2.012-1.208c-.514 3.05-1.34 5.982-1.996 8.045Zm-2.581 2.049c.446-1.213 2.583-7.24 3.144-12.787a5.486 5.486 0 0 1-.086-1.072c.031-1.71-.091-3.346-.368-4.857-1.02-5.552-4.075-9.17-5.901-11.332-.322-.38-.61-.722-.85-1.026l-.225-.292a43.862 43.862 0 0 0-5.056-4.434c-7.444-5.619-11.004-5.27-12.715-5.102l-.248.024c-.443.04-1.244.287-2.092.549-2.205.68-5.224 1.61-7.452.73-2.057-.811-2.242-2.879-2.421-4.878-.128-1.434-.261-2.918-1.031-4.073-1.652-2.477-5.901-1.229-8.151-.101-.889.445-1.558.995-2.148 1.48-1.011.83-2.056 1.69-3.633 1.296-1.007-.25-1.658-.945-2.287-1.616-.798-.85-1.488-1.586-2.915-1.552-1.414.034-1.564.432-1.836 1.154-.183.484-.41 1.086-1.007 1.531-1.061.794-1.959.34-2.615.01-.47-.238-.914-.462-1.578-.452-.833.013-2.184 1.296-3.122 2.452 1.06.9 2.938 3.003 5.042 7.683 1.2 2.671 1.445 4.69 1.704 6.829.405 3.342.864 7.13 5.318 14.814 5.231 9.025 11.88 12.85 15.853 15.136.51.294.972.56 1.372.803.321.195 1.066.554 1.664.843.434.21.836.403 1.082.534 3.714 1.982 8.625 2.824 14.613 2.508-4.486-1.325-11.157-4.032-17.357-9.39-10.392-8.981-16.063-26.431-16.3-27.17a.89.89 0 0 1 1.697-.537c.054.167 5.211 16.03 14.322 25.028.577-1.744 1.734-5.793 1.086-8.609-.266-1.158-.518-2.16-.741-3.042-.552-2.185-.951-3.764-1.023-5.622l-.001-.035c0-.473.376-.866.855-.884a.887.887 0 0 1 .924.85c.063 1.594.41 3.034.897 4.964l1.664-1.725a.894.894 0 0 1 1.259-.026c.354.34.366.899.026 1.252l-2.442 2.53c.103.424.21.87.318 1.345.882 3.853-1.01 9.278-1.397 10.323l.024.022c3.327 2.875 6.828 4.96 10.023 6.462-1.291-2.36-2.957-6.215-1.726-8.668.817-1.63 2.287-2.869 3.709-4.069 1.555-1.31 3.023-2.549 3.575-4.172a.892.892 0 0 1 1.129-.554.884.884 0 0 1 .557 1.123c-.71 2.087-2.438 3.544-4.109 4.954-.608.512-1.199 1.011-1.727 1.525 1.156.372 3.344.991 5.13 1.011 2.543.028 6.144-1.235 6.18-1.247a.891.891 0 0 1 1.137.537.883.883 0 0 1-.54 1.131c-.159.057-3.934 1.382-6.797 1.35-2.513-.028-5.546-1.043-6.346-1.327a5.65 5.65 0 0 0-.305.528c-1.107 2.21 1.734 7.285 2.817 8.89.041.06.074.124.098.19 5.066 2 8.823 2.486 8.888 2.493l.025.004c8.057-1.221 11.661-3.663 12.416-4.237Zm-5.617-35.065a23.414 23.414 0 0 1 1.571-7.836c1.159-2.978 1.437-5.093.828-6.283-.339-.663-.998-1.117-2.015-1.388a46.128 46.128 0 0 0-2.494-.577c-1.851-.39-3.451-.726-5.169-1.908-1.452-.997-1.092-2.388-.876-3.219.092-.36.198-.766.106-.906-.038-.057-.288-.352-1.534-.555-2.135-.348-4.334.32-6.1.855-1.639.498-2.824.857-3.708.367a1.624 1.624 0 0 1-.785-1.04c-.269-1.02.009-1.88.234-2.57.313-.97.39-1.2-.552-1.747-.801-.464-1.84-.429-2.94-.39-1.692.058-3.772.13-5.264-1.837-1.171.644-5.165 2.985-8.293 6.535-3.292 3.737-5.808 8.697-6.396 9.901.066.03.135.053.204.07.648.162 1.036-.098 2.065-.944.63-.517 1.414-1.161 2.481-1.696 3.446-1.727 8.247-2.58 10.436.703 1.02 1.53 1.18 3.318 1.322 4.895.17 1.904.315 3 1.304 3.39 1.644.65 4.316-.175 6.268-.776.981-.303 1.829-.564 2.459-.62l.233-.023c1.937-.19 5.966-.585 13.967 5.452.927.701 1.811 1.417 2.648 2.147Z"/><ellipse cx="38.5" cy="140" fill="#F5F6FB" rx="33.5" ry="7"/><ellipse cx="149.5" cy="124" fill="#F5F6FB" rx="33.5" ry="7"/></svg>